<svg xmlns="http://www.w3.org/2000/svg" viewBox="0 0 840.5 840.5"><defs><style>.a{fill:#00a7ff;}</style></defs><title>logo_color</title><path class="a" d="M628.42,840H70A70.08,70.08,0,0,1,0,770V70A70.08,70.08,0,0,1,70,0H770a70.08,70.08,0,0,1,70,70V628.28ZM70,40A30,30,0,0,0,40,70V770a30,30,0,0,0,30,30H611.85L800,611.72V70a30,30,0,0,0-30-30Z"/><path class="a" d="M600.5,840.5v-170a70.08,70.08,0,0,1,70-70h170Zm40-40,160-160h-130a30,30,0,0,0-30,30Z"/><path class="a" d="M138.29,731l-23-8.09q-12.72-4.64-18.17-12.56T91.7,689.51q0-18.82,9.17-25.19T133.16,658q21.81,0,37.51,4.46L169,679.6q-14.37-.5-35.68-.49-9.92,0-13.22,1.73t-3.3,8.67c0,3.75.82,6.45,2.48,8.1s4.79,3.25,9.41,4.79l21.65,7.43q13.22,4.63,18.66,12.64t5.46,20.9q0,19.17-9.26,26t-33,6.86A184.79,184.79,0,0,1,93,772l1.49-18.17q35.19.83,37.66.83,10.08,0,13.47-2.15t3.38-8.92c0-3.86-.77-6.58-2.31-8.18S142.36,732.3,138.29,731Z"/><path class="a" d="M192.31,774.1v-114q15.36-1.49,43.28-1.49,24,0,32.79,7.77t8.84,29.4q0,21.65-8.34,29.49t-30,7.85a173,173,0,0,1-21.47-1.32V774.1Zm25.11-60.3h17.67q9.75-.16,13.3-3.8t3.55-14.21q0-10.56-3.55-14.21T235.09,678l-17.67.17Z"/><path class="a" d="M349.91,744.2H310.76l-8.26,29.9H276.73L309.6,666.72a7.92,7.92,0,0,1,3.14-4.8,9.25,9.25,0,0,1,5.62-1.81h23.79q7.1,0,8.75,6.61L383.78,774.1H358.17Zm-5.45-19.5-9.58-34.86c-1.32-5.5-2.1-9.08-2.31-10.73H328.1q-.33,1.65-1.15,5.28c-.55,2.43-1,4.24-1.32,5.45L316,724.7Z"/><path class="a" d="M472.83,752.79,475,771.46q-14.87,4.62-36.51,4.62-26.43,0-37.17-13.21T390.55,717.1q0-32.54,10.74-45.76t37.17-13.22a140.12,140.12,0,0,1,34.2,3.8l-2.15,18.84q-13.38-.82-32.05-.83-12.39,0-16.93,7.85T417,717.1q0,21.48,4.54,29.33t16.93,7.85Q461.42,754.28,472.83,752.79Z"/><path class="a" d="M567,754.44l1.16,18.5q-15.54,1.65-52.87,1.66-11.4,0-18.17-6.2t-6.94-16.77v-69q.16-10.58,6.94-16.77t18.17-6.2q37.34,0,52.87,1.65L567,679.93H523.21q-4.12,0-5.94,2c-1.22,1.32-1.82,3.46-1.82,6.44V705.7h45.43v18.18H515.45v22c0,3.08.6,5.29,1.82,6.61s3.19,2,5.94,2Z"/></svg>