<?xml version="1.0" encoding="UTF-8" standalone="no"?>
<!DOCTYPE svg PUBLIC "-//W3C//DTD SVG 1.1//EN" "http://www.w3.org/Graphics/SVG/1.1/DTD/svg11.dtd">
<svg width="100%" height="100%" viewBox="0 0 1080 1080" version="1.1" xmlns="http://www.w3.org/2000/svg" xmlns:xlink="http://www.w3.org/1999/xlink" xml:space="preserve" xmlns:serif="http://www.serif.com/" style="fill-rule:evenodd;clip-rule:evenodd;stroke-linejoin:round;stroke-miterlimit:2;">
    <g transform="matrix(0.912919,0,0,0.912919,-7.11563e-15,108.364)">
        <path d="M115.416,319.06C107.01,315.524 97.309,317.289 90.686,323.56C84.064,329.83 81.772,339.42 84.844,348.007L167.735,579.746C171.687,590.794 183.321,597.096 194.734,594.371L493.321,523.067C502.995,520.756 510.088,512.489 510.901,502.576C511.714,492.663 506.063,483.35 496.895,479.494L115.416,319.06Z" style="fill:white;"/>
    </g>
    <g transform="matrix(0.912919,0,0,0.912919,-7.11563e-15,108.364)">
        <path d="M995.156,348.007C998.228,339.42 995.936,329.83 989.314,323.56C982.691,317.289 972.99,315.524 964.584,319.06L583.105,479.494C573.937,483.35 568.286,492.663 569.099,502.576C569.912,512.489 577.005,520.756 586.679,523.067L885.266,594.371C896.679,597.096 908.313,590.794 912.265,579.746L995.156,348.007Z" style="fill:white;"/>
    </g>
    <path d="M985.952,221.543L985.952,723.789L985.814,723.927C979.04,777.163 725.914,1025.45 676.933,1032.81L676.765,1032.98L22.016,1032.98C9.857,1032.98 0,1023.12 0,1010.96L0,69.04C0,56.881 9.857,47.024 22.016,47.024L963.936,47.024C976.095,47.024 985.952,56.881 985.952,69.04L985.952,129.296L1080,129.296L985.952,221.543ZM941.919,278.349L44.033,312.769L44.033,988.943L668.15,988.943C684.138,968.809 676.765,745.806 676.765,745.806C676.765,733.646 686.622,723.789 698.782,723.789C698.782,723.789 925.062,733.427 941.919,715.174L941.919,278.349ZM941.919,159.514L941.919,91.057L44.033,91.057L44.033,153.6L941.919,159.514Z" style="fill:white;"/>
</svg>
