<?xml version="1.0" encoding="UTF-8" standalone="no"?>
<!DOCTYPE svg PUBLIC "-//W3C//DTD SVG 1.1//EN" "http://www.w3.org/Graphics/SVG/1.1/DTD/svg11.dtd">
<svg width="100%" height="100%" viewBox="0 0 1010 718" version="1.1" xmlns="http://www.w3.org/2000/svg" xmlns:xlink="http://www.w3.org/1999/xlink" xml:space="preserve" xmlns:serif="http://www.serif.com/" style="fill-rule:evenodd;clip-rule:evenodd;stroke-linejoin:round;stroke-miterlimit:2;">
    <g transform="matrix(1,0,0,1,-95.23,-91.02)">
        <path d="M681.78,202.42C617.06,200.17 555.42,179.28 496.56,156.42C437.7,133.56 379.4,108.23 316.23,96.12C275.6,88.33 229.13,87.23 196.4,109C164.89,130 154.71,166.15 149.24,199.73C145.12,224.99 142.7,251.57 153.98,275.22C161.82,291.64 175.72,305.44 185.34,321.17C218.81,375.89 195.15,443.37 158.89,496.8C141.89,521.87 122.14,545.8 109.01,572.46C95.88,599.12 89.81,629.71 101.3,656.93C112.68,683.93 139.81,704.17 169.2,718.42C228.89,747.36 299.2,755.65 367.81,760.34C519.64,770.73 672.27,766.23 824.5,761.73C880.84,760.06 937.42,758.37 992.84,749.66C1023.62,744.82 1055.39,737.14 1077.74,718.66C1106.1,695.13 1113.13,655.28 1094.12,625.78C1062.24,576.29 974.12,564 951.81,510.88C939.55,481.65 952.14,449.08 969.97,421.97C1008.21,363.81 1072.3,312.78 1075.67,246.3C1077.99,200.63 1047.18,154.9 999.54,133.3C949.61,110.65 880.36,113.5 843.54,150.99C805.59,189.55 738.93,204.4 681.78,202.42Z" style="fill:rgb(0,179,251);fill-opacity:0.1;fill-rule:nonzero;"/>
    </g>
    <g opacity="0.2">
        <g transform="matrix(1,0,0,1,-95.23,-91.02)">
            <path d="M344.19,718.29C344.784,719.438 345.286,720.632 345.69,721.86C337.69,724.88 329.69,728.047 321.69,731.36C321.52,731.07 321.35,730.76 321.19,730.45C319.443,727.251 318.583,723.643 318.7,720C318.91,715.31 320.99,711.27 324.7,709.32C328.41,707.37 332.91,707.91 336.9,710.32C339.994,712.282 342.511,715.034 344.19,718.29Z" style="fill:rgb(63,61,86);fill-rule:nonzero;"/>
        </g>
        <g transform="matrix(0.884255,-0.467004,0.467004,0.884255,-387.52,141.49)">
            <ellipse cx="322.94" cy="705.95" rx="13.02" ry="17.05" style="fill:rgb(63,61,86);"/>
        </g>
        <g transform="matrix(0.884255,-0.467004,0.467004,0.884255,-380.04,134.81)">
            <ellipse cx="313.21" cy="687.53" rx="13.02" ry="17.05" style="fill:rgb(63,61,86);"/>
        </g>
        <g transform="matrix(0.884255,-0.467004,0.467004,0.884255,-372.56,128.14)">
            <ellipse cx="303.48" cy="669.1" rx="13.02" ry="17.05" style="fill:rgb(63,61,86);"/>
        </g>
        <g transform="matrix(0.884255,-0.467004,0.467004,0.884255,-365.09,121.46)">
            <ellipse cx="293.75" cy="650.68" rx="13.02" ry="17.05" style="fill:rgb(63,61,86);"/>
        </g>
        <g transform="matrix(1,0,0,1,-95.23,-91.02)">
            <path d="M184.07,547.38C181.443,546.219 178.897,544.883 176.45,543.38L204.08,522.38L171.49,539.91C157.86,529.462 149.126,513.842 147.36,496.76L203.28,496.35L147.08,488C148.339,454.692 176.083,427.975 209.416,427.975C243.636,427.975 271.796,456.135 271.796,490.355C271.796,494.134 271.452,497.904 270.77,501.62C274.869,503.441 278.758,505.701 282.37,508.36L253.88,549.5L288.33,513.33C303.606,527.824 310.559,549.102 306.79,569.82C329.274,579.814 343.832,602.217 343.832,626.822C343.832,661.043 315.673,689.202 281.452,689.202C247.232,689.202 219.072,661.043 219.072,626.822C219.072,623.058 219.413,619.302 220.09,615.6C193.885,603.936 178.94,575.628 184.09,547.41L184.07,547.38Z" style="fill:rgb(0,179,251);fill-rule:nonzero;"/>
        </g>
        <g transform="matrix(1,0,0,1,-95.23,-91.02)">
            <path d="M300.58,529.46C307.131,541.818 309.32,556.034 306.79,569.79C329.274,579.784 343.832,602.187 343.832,626.792C343.832,661.013 315.673,689.172 281.452,689.172C247.232,689.172 219.072,661.013 219.072,626.792C219.072,623.028 219.413,619.272 220.09,615.57C207.74,610.09 297.31,523.27 300.58,529.46Z" style="fill-opacity:0.1;fill-rule:nonzero;"/>
        </g>
    </g>
    <g opacity="0.2">
        <g transform="matrix(1,0,0,1,-95.23,-91.02)">
            <path d="M786.77,587.77C786.164,589.461 785.702,591.201 785.39,592.97C797.003,595.577 808.62,598.407 820.24,601.46C820.42,601.03 820.6,600.57 820.77,600.11C822.545,595.365 823.025,590.232 822.16,585.24C820.97,578.84 817.34,573.68 811.85,571.69C806.36,569.7 800.29,571.32 795.27,575.45C791.393,578.729 788.459,582.982 786.77,587.77Z" style="fill:rgb(63,61,86);fill-rule:nonzero;"/>
        </g>
        <g transform="matrix(0.341364,-0.939931,0.939931,0.341364,-92.05,1047.02)">
            <ellipse cx="813.65" cy="566.75" rx="23.67" ry="18.08" style="fill:rgb(63,61,86);"/>
        </g>
        <g transform="matrix(0.34,-0.94,0.94,0.34,-59.98,1038.39)">
            <ellipse cx="823.53" cy="539.55" rx="23.67" ry="18.08" style="fill:rgb(63,61,86);"/>
        </g>
        <g transform="matrix(0.341364,-0.939931,0.939931,0.341364,-27.92,1029.77)">
            <ellipse cx="833.41" cy="512.36" rx="23.67" ry="18.08" style="fill:rgb(63,61,86);"/>
        </g>
        <g transform="matrix(0.341364,-0.939931,0.939931,0.341364,4.14,1021.14)">
            <ellipse cx="843.28" cy="485.17" rx="23.67" ry="18.08" style="fill:rgb(63,61,86);"/>
        </g>
        <g transform="matrix(1,0,0,1,-95.23,-91.02)">
            <path d="M974.49,322.19C977.888,320.085 981.136,317.746 984.21,315.19L942.21,291.64L990.38,309.54C1007.14,292.579 1016.19,269.434 1015.38,245.6L938.38,255.68L1014.09,233.46C1006.77,192.282 970.629,161.991 928.805,161.991C881.287,161.991 842.185,201.093 842.185,248.611C842.185,257.825 843.655,266.98 846.54,275.73C841.254,279.017 836.336,282.863 831.87,287.2L878.87,338.37L824.6,295.16C806.346,318.007 800.846,348.606 810,376.38C784.606,392.168 769.12,420.031 769.12,449.933C769.12,497.446 808.217,536.543 855.73,536.543C903.243,536.543 942.34,497.446 942.34,449.933C942.34,440.736 940.875,431.597 938,422.86C971.838,401.827 987.016,360.035 974.56,322.19L974.49,322.19Z" style="fill:rgb(0,179,251);fill-rule:nonzero;"/>
        </g>
        <g transform="matrix(1,0,0,1,-95.23,-91.02)">
            <path d="M810.82,319.71C804.162,337.961 803.858,357.936 809.96,376.38C784.566,392.168 769.08,420.031 769.08,449.933C769.08,497.446 808.177,536.543 855.69,536.543C903.203,536.543 942.3,497.446 942.3,449.933C942.3,440.736 940.835,431.597 937.96,422.86C953.87,413 814.14,310.58 810.82,319.71Z" style="fill-opacity:0.1;fill-rule:nonzero;"/>
        </g>
    </g>
    <ellipse cx="180.47" cy="642.47" rx="67.3" ry="12.94" style="fill:rgb(0,179,251);"/>
    <ellipse cx="179.34" cy="636.97" rx="7.84" ry="10.26" style="fill:rgb(63,61,86);"/>
    <ellipse cx="179.34" cy="624.43" rx="7.84" ry="10.26" style="fill:rgb(63,61,86);"/>
    <ellipse cx="179.34" cy="611.89" rx="7.84" ry="10.26" style="fill:rgb(63,61,86);"/>
    <ellipse cx="179.34" cy="599.36" rx="7.84" ry="10.26" style="fill:rgb(63,61,86);"/>
    <ellipse cx="179.34" cy="586.82" rx="7.84" ry="10.26" style="fill:rgb(63,61,86);"/>
    <ellipse cx="179.34" cy="574.28" rx="7.84" ry="10.26" style="fill:rgb(63,61,86);"/>
    <ellipse cx="179.34" cy="561.75" rx="7.84" ry="10.26" style="fill:rgb(63,61,86);"/>
    <g transform="matrix(1,0,0,1,-95.23,-91.02)">
        <path d="M303.91,567C304.98,565.637 305.952,564.2 306.82,562.7L286.24,559.32L308.5,559.49C312.82,550.102 313.08,539.336 309.22,529.75L279.35,545.24L306.9,525C300.202,513.4 287.785,506.231 274.39,506.231C253.796,506.231 236.85,523.177 236.85,543.771C236.85,552.196 239.686,560.381 244.9,567C243.228,569.119 241.789,571.412 240.61,573.84L267.34,587.73L238.84,578.16C234.779,590.167 237.062,603.448 244.9,613.41C239.699,620.023 236.87,628.197 236.87,636.61C236.87,657.199 253.812,674.14 274.4,674.14C294.988,674.14 311.93,657.199 311.93,636.61C311.93,628.197 309.101,620.023 303.9,613.41C314.572,599.839 314.572,580.571 303.9,567L303.91,567Z" style="fill:rgb(0,179,251);fill-rule:nonzero;"/>
    </g>
    <g transform="matrix(1,0,0,1,-95.23,-91.02)">
        <path d="M236.87,590.17C236.844,598.586 239.665,606.767 244.87,613.38C239.669,619.993 236.84,628.167 236.84,636.58C236.84,657.169 253.782,674.11 274.37,674.11C294.958,674.11 311.9,657.169 311.9,636.58C311.9,628.167 309.071,619.993 303.87,613.38C308.94,607 236.87,586 236.87,590.17Z" style="fill-opacity:0.1;fill-rule:nonzero;"/>
    </g>
    <path d="M752.02,185.79C752.02,181.695 748.695,178.37 744.6,178.37L275.83,178.37C271.735,178.37 268.41,181.695 268.41,185.79L268.41,275.3C268.41,279.395 271.735,282.72 275.83,282.72L744.6,282.72C748.695,282.72 752.02,279.395 752.02,275.3L752.02,185.79Z" style="fill:rgb(53,50,62);"/>
    <g transform="matrix(1,0,0,1,-95.23,-91.02)">
        <path d="M404.57,143.17C404.57,143.17 411.44,330 399.26,351.87L811,351.87C811,351.87 793.51,208.16 811,143.17L404.57,143.17Z" style="fill:white;fill-rule:nonzero;"/>
    </g>
    <rect x="351.51" y="252.89" width="301.79" height="37.49" style="fill:rgb(53,50,62);"/>
    <g transform="matrix(1,0,0,1,-95.23,-91.02)">
        <path d="M882.9,785.21L323.54,785.21C323.539,785.21 323.538,785.21 323.537,785.21C307.178,785.21 293.717,771.749 293.717,755.39C293.717,754.287 293.778,753.186 293.9,752.09L305.34,649C306.093,642.147 306.637,635.277 306.97,628.39L309.12,558.49C309.613,542.697 310.68,526.943 312.32,511.23C313.173,503.083 314.173,494.953 315.32,486.84L330.03,384.36C333.884,357.961 356.752,338.177 383.43,338.16L405.77,338.16C417.105,338.2 428.127,341.909 437.18,348.73C460.32,366 526.06,378.46 603.56,378.46C681.06,378.46 746.81,366 770,348.69C779.053,341.869 790.075,338.16 801.41,338.12L837.6,338.12C853.238,338.12 866.748,349.459 869.46,364.86L889.21,476.86C891.21,488.247 892.907,499.68 894.3,511.16C896.62,530.247 898.077,549.417 898.67,568.67L900.67,633.62C901.089,647.165 902.26,660.676 904.18,674.09L914.79,748.4C915.01,749.923 915.12,751.461 915.12,753C915.12,770.67 900.58,785.21 882.91,785.21C882.907,785.21 882.903,785.21 882.9,785.21Z" style="fill:rgb(70,67,83);fill-rule:nonzero;"/>
    </g>
    <path d="M775.77,454.84C775.77,443.824 766.826,434.88 755.81,434.88L261.51,434.88C250.494,434.88 241.55,443.824 241.55,454.84L241.55,644.55C241.55,655.566 250.494,664.51 261.51,664.51L755.81,664.51C766.826,664.51 775.77,655.566 775.77,644.55L775.77,454.84Z" style="fill-opacity:0.1;"/>
    <ellipse cx="275.91" cy="461.74" rx="15.31" ry="12.81" style="fill:rgb(0,179,251);"/>
    <ellipse cx="275.91" cy="461.74" rx="15.31" ry="12.81" style="fill-opacity:0.1;"/>
    <ellipse cx="275.91" cy="458.93" rx="15.31" ry="12.81" style="fill:rgb(0,179,251);"/>
    <ellipse cx="294.03" cy="506.42" rx="15.31" ry="12.81" style="fill:rgb(53,50,62);"/>
    <ellipse cx="294.03" cy="506.42" rx="15.31" ry="12.81" style="fill-opacity:0.1;"/>
    <ellipse cx="294.03" cy="503.61" rx="15.31" ry="12.81" style="fill:rgb(53,50,62);"/>
    <ellipse cx="304.03" cy="551.1" rx="15.31" ry="12.81" style="fill:rgb(53,50,62);"/>
    <ellipse cx="304.03" cy="551.1" rx="15.31" ry="12.81" style="fill-opacity:0.1;"/>
    <ellipse cx="304.03" cy="548.29" rx="15.31" ry="12.81" style="fill:rgb(53,50,62);"/>
    <ellipse cx="265.29" cy="556.41" rx="15.31" ry="12.81" style="fill:rgb(53,50,62);"/>
    <ellipse cx="265.29" cy="556.41" rx="15.31" ry="12.81" style="fill-opacity:0.1;"/>
    <ellipse cx="265.29" cy="553.6" rx="15.31" ry="12.81" style="fill:rgb(53,50,62);"/>
    <ellipse cx="322.77" cy="595.77" rx="15.31" ry="12.81" style="fill:rgb(53,50,62);"/>
    <ellipse cx="322.77" cy="595.77" rx="15.31" ry="12.81" style="fill-opacity:0.1;"/>
    <ellipse cx="322.77" cy="592.96" rx="15.31" ry="12.81" style="fill:rgb(53,50,62);"/>
    <ellipse cx="271.54" cy="597.34" rx="15.31" ry="12.81" style="fill:rgb(53,50,62);"/>
    <ellipse cx="271.54" cy="597.34" rx="15.31" ry="12.81" style="fill-opacity:0.1;"/>
    <ellipse cx="271.54" cy="594.52" rx="15.31" ry="12.81" style="fill:rgb(53,50,62);"/>
    <ellipse cx="364.95" cy="595.77" rx="15.31" ry="12.81" style="fill:rgb(53,50,62);"/>
    <ellipse cx="364.95" cy="595.77" rx="15.31" ry="12.81" style="fill-opacity:0.1;"/>
    <ellipse cx="364.95" cy="592.96" rx="15.31" ry="12.81" style="fill:rgb(53,50,62);"/>
    <ellipse cx="409.62" cy="595.77" rx="15.31" ry="12.81" style="fill:rgb(53,50,62);"/>
    <ellipse cx="409.62" cy="595.77" rx="15.31" ry="12.81" style="fill-opacity:0.1;"/>
    <ellipse cx="409.62" cy="592.96" rx="15.31" ry="12.81" style="fill:rgb(53,50,62);"/>
    <ellipse cx="450.86" cy="595.77" rx="15.31" ry="12.81" style="fill:rgb(53,50,62);"/>
    <ellipse cx="450.86" cy="595.77" rx="15.31" ry="12.81" style="fill-opacity:0.1;"/>
    <ellipse cx="450.86" cy="592.96" rx="15.31" ry="12.81" style="fill:rgb(53,50,62);"/>
    <ellipse cx="496.47" cy="595.77" rx="15.31" ry="12.81" style="fill:rgb(53,50,62);"/>
    <ellipse cx="496.47" cy="595.77" rx="15.31" ry="12.81" style="fill-opacity:0.1;"/>
    <ellipse cx="496.47" cy="592.96" rx="15.31" ry="12.81" style="fill:rgb(53,50,62);"/>
    <ellipse cx="537.71" cy="595.77" rx="15.31" ry="12.81" style="fill:rgb(53,50,62);"/>
    <ellipse cx="537.71" cy="595.77" rx="15.31" ry="12.81" style="fill-opacity:0.1;"/>
    <ellipse cx="537.71" cy="592.96" rx="15.31" ry="12.81" style="fill:rgb(53,50,62);"/>
    <ellipse cx="578.63" cy="595.77" rx="15.31" ry="12.81" style="fill:rgb(53,50,62);"/>
    <ellipse cx="578.63" cy="595.77" rx="15.31" ry="12.81" style="fill-opacity:0.1;"/>
    <ellipse cx="578.63" cy="592.96" rx="15.31" ry="12.81" style="fill:rgb(53,50,62);"/>
    <ellipse cx="623" cy="595.77" rx="15.31" ry="12.81" style="fill:rgb(53,50,62);"/>
    <ellipse cx="623" cy="595.77" rx="15.31" ry="12.81" style="fill-opacity:0.1;"/>
    <ellipse cx="623" cy="592.96" rx="15.31" ry="12.81" style="fill:rgb(53,50,62);"/>
    <ellipse cx="664.55" cy="595.77" rx="15.31" ry="12.81" style="fill:rgb(53,50,62);"/>
    <ellipse cx="664.55" cy="595.77" rx="15.31" ry="12.81" style="fill-opacity:0.1;"/>
    <ellipse cx="664.55" cy="592.96" rx="15.31" ry="12.81" style="fill:rgb(53,50,62);"/>
    <ellipse cx="710.47" cy="595.77" rx="15.31" ry="12.81" style="fill:rgb(53,50,62);"/>
    <ellipse cx="710.47" cy="595.77" rx="15.31" ry="12.81" style="fill-opacity:0.1;"/>
    <ellipse cx="710.47" cy="592.96" rx="15.31" ry="12.81" style="fill:rgb(53,50,62);"/>
    <ellipse cx="757.65" cy="595.77" rx="15.31" ry="12.81" style="fill:rgb(53,50,62);"/>
    <ellipse cx="757.65" cy="595.77" rx="15.31" ry="12.81" style="fill-opacity:0.1;"/>
    <ellipse cx="757.65" cy="592.96" rx="15.31" ry="12.81" style="fill:rgb(53,50,62);"/>
    <ellipse cx="346.52" cy="551.1" rx="15.31" ry="12.81" style="fill:rgb(53,50,62);"/>
    <ellipse cx="346.52" cy="551.1" rx="15.31" ry="12.81" style="fill-opacity:0.1;"/>
    <ellipse cx="346.52" cy="548.29" rx="15.31" ry="12.81" style="fill:rgb(53,50,62);"/>
    <ellipse cx="389" cy="551.1" rx="15.31" ry="12.81" style="fill:rgb(53,50,62);"/>
    <ellipse cx="389" cy="551.1" rx="15.31" ry="12.81" style="fill-opacity:0.1;"/>
    <ellipse cx="389" cy="548.29" rx="15.31" ry="12.81" style="fill:rgb(53,50,62);"/>
    <ellipse cx="432.74" cy="551.1" rx="15.31" ry="12.81" style="fill:rgb(53,50,62);"/>
    <ellipse cx="432.74" cy="551.1" rx="15.31" ry="12.81" style="fill-opacity:0.1;"/>
    <ellipse cx="432.74" cy="548.29" rx="15.31" ry="12.81" style="fill:rgb(53,50,62);"/>
    <ellipse cx="474.6" cy="551.1" rx="15.31" ry="12.81" style="fill:rgb(53,50,62);"/>
    <ellipse cx="474.6" cy="551.1" rx="15.31" ry="12.81" style="fill-opacity:0.1;"/>
    <ellipse cx="474.6" cy="548.29" rx="15.31" ry="12.81" style="fill:rgb(53,50,62);"/>
    <ellipse cx="517.4" cy="551.1" rx="15.31" ry="12.81" style="fill:rgb(53,50,62);"/>
    <ellipse cx="517.4" cy="551.1" rx="15.31" ry="12.81" style="fill-opacity:0.1;"/>
    <ellipse cx="517.4" cy="548.29" rx="15.31" ry="12.81" style="fill:rgb(53,50,62);"/>
    <ellipse cx="558.33" cy="551.1" rx="15.31" ry="12.81" style="fill:rgb(53,50,62);"/>
    <ellipse cx="558.33" cy="551.1" rx="15.31" ry="12.81" style="fill-opacity:0.1;"/>
    <ellipse cx="558.33" cy="548.29" rx="15.31" ry="12.81" style="fill:rgb(53,50,62);"/>
    <ellipse cx="602.69" cy="551.1" rx="15.31" ry="12.81" style="fill:rgb(53,50,62);"/>
    <ellipse cx="602.69" cy="551.1" rx="15.31" ry="12.81" style="fill-opacity:0.1;"/>
    <ellipse cx="602.69" cy="548.29" rx="15.31" ry="12.81" style="fill:rgb(53,50,62);"/>
    <ellipse cx="644.87" cy="551.1" rx="15.31" ry="12.81" style="fill:rgb(53,50,62);"/>
    <ellipse cx="644.87" cy="551.1" rx="15.31" ry="12.81" style="fill-opacity:0.1;"/>
    <ellipse cx="644.87" cy="548.29" rx="15.31" ry="12.81" style="fill:rgb(53,50,62);"/>
    <ellipse cx="687.98" cy="551.1" rx="15.31" ry="12.81" style="fill:rgb(53,50,62);"/>
    <ellipse cx="687.98" cy="551.1" rx="15.31" ry="12.81" style="fill-opacity:0.1;"/>
    <ellipse cx="687.98" cy="548.29" rx="15.31" ry="12.81" style="fill:rgb(53,50,62);"/>
    <ellipse cx="731.09" cy="551.1" rx="15.31" ry="12.81" style="fill:rgb(53,50,62);"/>
    <ellipse cx="731.09" cy="551.1" rx="15.31" ry="12.81" style="fill-opacity:0.1;"/>
    <ellipse cx="731.09" cy="548.29" rx="15.31" ry="12.81" style="fill:rgb(53,50,62);"/>
    <ellipse cx="337.14" cy="506.42" rx="15.31" ry="12.81" style="fill:rgb(53,50,62);"/>
    <ellipse cx="337.14" cy="506.42" rx="15.31" ry="12.81" style="fill-opacity:0.1;"/>
    <ellipse cx="337.14" cy="503.61" rx="15.31" ry="12.81" style="fill:rgb(53,50,62);"/>
    <ellipse cx="380.26" cy="506.42" rx="15.31" ry="12.81" style="fill:rgb(53,50,62);"/>
    <ellipse cx="380.26" cy="506.42" rx="15.31" ry="12.81" style="fill-opacity:0.1;"/>
    <ellipse cx="380.26" cy="503.61" rx="15.31" ry="12.81" style="fill:rgb(53,50,62);"/>
    <ellipse cx="421.81" cy="506.42" rx="15.31" ry="12.81" style="fill:rgb(53,50,62);"/>
    <ellipse cx="421.81" cy="506.42" rx="15.31" ry="12.81" style="fill-opacity:0.1;"/>
    <ellipse cx="421.81" cy="503.61" rx="15.31" ry="12.81" style="fill:rgb(53,50,62);"/>
    <ellipse cx="463.36" cy="506.42" rx="15.31" ry="12.81" style="fill:rgb(53,50,62);"/>
    <ellipse cx="463.36" cy="506.42" rx="15.31" ry="12.81" style="fill-opacity:0.1;"/>
    <ellipse cx="463.36" cy="503.61" rx="15.31" ry="12.81" style="fill:rgb(53,50,62);"/>
    <ellipse cx="505.22" cy="506.42" rx="15.31" ry="12.81" style="fill:rgb(53,50,62);"/>
    <ellipse cx="505.22" cy="506.42" rx="15.31" ry="12.81" style="fill-opacity:0.1;"/>
    <ellipse cx="505.22" cy="503.61" rx="15.31" ry="12.81" style="fill:rgb(53,50,62);"/>
    <ellipse cx="546.46" cy="506.42" rx="15.31" ry="12.81" style="fill:rgb(53,50,62);"/>
    <ellipse cx="546.46" cy="506.42" rx="15.31" ry="12.81" style="fill-opacity:0.1;"/>
    <ellipse cx="546.46" cy="503.61" rx="15.31" ry="12.81" style="fill:rgb(53,50,62);"/>
    <ellipse cx="590.19" cy="506.42" rx="15.31" ry="12.81" style="fill:rgb(53,50,62);"/>
    <ellipse cx="590.19" cy="506.42" rx="15.31" ry="12.81" style="fill-opacity:0.1;"/>
    <ellipse cx="590.19" cy="503.61" rx="15.31" ry="12.81" style="fill:rgb(53,50,62);"/>
    <ellipse cx="631.43" cy="506.42" rx="15.31" ry="12.81" style="fill:rgb(53,50,62);"/>
    <ellipse cx="631.43" cy="506.42" rx="15.31" ry="12.81" style="fill-opacity:0.1;"/>
    <ellipse cx="631.43" cy="503.61" rx="15.31" ry="12.81" style="fill:rgb(53,50,62);"/>
    <ellipse cx="675.48" cy="506.42" rx="15.31" ry="12.81" style="fill:rgb(53,50,62);"/>
    <ellipse cx="675.48" cy="506.42" rx="15.31" ry="12.81" style="fill-opacity:0.1;"/>
    <ellipse cx="675.48" cy="503.61" rx="15.31" ry="12.81" style="fill:rgb(53,50,62);"/>
    <ellipse cx="718.59" cy="506.42" rx="15.31" ry="12.81" style="fill:rgb(53,50,62);"/>
    <ellipse cx="718.59" cy="506.42" rx="15.31" ry="12.81" style="fill-opacity:0.1;"/>
    <ellipse cx="718.59" cy="503.61" rx="15.31" ry="12.81" style="fill:rgb(53,50,62);"/>
    <ellipse cx="315.9" cy="461.74" rx="15.31" ry="12.81" style="fill:rgb(53,50,62);"/>
    <ellipse cx="315.9" cy="461.74" rx="15.31" ry="12.81" style="fill-opacity:0.1;"/>
    <ellipse cx="315.9" cy="458.93" rx="15.31" ry="12.81" style="fill:rgb(53,50,62);"/>
    <ellipse cx="358.39" cy="461.74" rx="15.31" ry="12.81" style="fill:rgb(53,50,62);"/>
    <ellipse cx="358.39" cy="461.74" rx="15.31" ry="12.81" style="fill-opacity:0.1;"/>
    <ellipse cx="358.39" cy="458.93" rx="15.31" ry="12.81" style="fill:rgb(53,50,62);"/>
    <ellipse cx="399.31" cy="461.74" rx="15.31" ry="12.81" style="fill:rgb(53,50,62);"/>
    <ellipse cx="399.31" cy="461.74" rx="15.31" ry="12.81" style="fill-opacity:0.1;"/>
    <ellipse cx="399.31" cy="458.93" rx="15.31" ry="12.81" style="fill:rgb(53,50,62);"/>
    <ellipse cx="441.49" cy="461.74" rx="15.31" ry="12.81" style="fill:rgb(53,50,62);"/>
    <ellipse cx="441.49" cy="461.74" rx="15.31" ry="12.81" style="fill-opacity:0.1;"/>
    <ellipse cx="441.49" cy="458.93" rx="15.31" ry="12.81" style="fill:rgb(53,50,62);"/>
    <ellipse cx="483.04" cy="461.74" rx="15.31" ry="12.81" style="fill:rgb(53,50,62);"/>
    <ellipse cx="483.04" cy="461.74" rx="15.31" ry="12.81" style="fill-opacity:0.1;"/>
    <ellipse cx="483.04" cy="458.93" rx="15.31" ry="12.81" style="fill:rgb(53,50,62);"/>
    <ellipse cx="525.53" cy="461.74" rx="15.31" ry="12.81" style="fill:rgb(53,50,62);"/>
    <ellipse cx="525.53" cy="461.74" rx="15.31" ry="12.81" style="fill-opacity:0.1;"/>
    <ellipse cx="525.53" cy="458.93" rx="15.31" ry="12.81" style="fill:rgb(53,50,62);"/>
    <ellipse cx="567.08" cy="461.74" rx="15.31" ry="12.81" style="fill:rgb(53,50,62);"/>
    <ellipse cx="567.08" cy="461.74" rx="15.31" ry="12.81" style="fill-opacity:0.1;"/>
    <ellipse cx="567.08" cy="458.93" rx="15.31" ry="12.81" style="fill:rgb(53,50,62);"/>
    <ellipse cx="609.25" cy="461.74" rx="15.31" ry="12.81" style="fill:rgb(53,50,62);"/>
    <ellipse cx="609.25" cy="461.74" rx="15.31" ry="12.81" style="fill-opacity:0.1;"/>
    <ellipse cx="609.25" cy="458.93" rx="15.31" ry="12.81" style="fill:rgb(53,50,62);"/>
    <ellipse cx="652.68" cy="461.74" rx="15.31" ry="12.81" style="fill:rgb(53,50,62);"/>
    <ellipse cx="652.68" cy="461.74" rx="15.31" ry="12.81" style="fill-opacity:0.1;"/>
    <ellipse cx="652.68" cy="458.93" rx="15.31" ry="12.81" style="fill:rgb(53,50,62);"/>
    <ellipse cx="695.16" cy="461.74" rx="15.31" ry="12.81" style="fill:rgb(53,50,62);"/>
    <ellipse cx="695.16" cy="461.74" rx="15.31" ry="12.81" style="fill-opacity:0.1;"/>
    <ellipse cx="695.16" cy="458.93" rx="15.31" ry="12.81" style="fill:rgb(53,50,62);"/>
    <ellipse cx="736.71" cy="461.74" rx="15.31" ry="12.81" style="fill:rgb(0,179,251);"/>
    <ellipse cx="736.71" cy="461.74" rx="15.31" ry="12.81" style="fill-opacity:0.1;"/>
    <ellipse cx="736.71" cy="458.93" rx="15.31" ry="12.81" style="fill:rgb(0,179,251);"/>
    <path d="M743.59,634.84C743.59,629.834 739.526,625.77 734.52,625.77L284.98,625.77C279.974,625.77 275.91,629.834 275.91,634.84L275.91,641.38C275.91,646.386 279.974,650.45 284.98,650.45L734.52,650.45C739.526,650.45 743.59,646.386 743.59,641.38L743.59,634.84Z" style="fill:rgb(53,50,62);"/>
    <path d="M743.59,634.84C743.59,629.834 739.526,625.77 734.52,625.77L284.98,625.77C279.974,625.77 275.91,629.834 275.91,634.84L275.91,641.38C275.91,646.386 279.974,650.45 284.98,650.45L734.52,650.45C739.526,650.45 743.59,646.386 743.59,641.38L743.59,634.84Z" style="fill-opacity:0.1;"/>
    <path d="M743.59,632.96C743.59,627.954 739.526,623.89 734.52,623.89L284.98,623.89C279.974,623.89 275.91,627.954 275.91,632.96L275.91,639.5C275.91,644.506 279.974,648.57 284.98,648.57L734.52,648.57C739.526,648.57 743.59,644.506 743.59,639.5L743.59,632.96Z" style="fill:rgb(53,50,62);"/>
    <g transform="matrix(1,0,0,1,-95.23,-91.02)">
        <path d="M775.09,422.48C775.09,448.88 691.53,477.15 597.32,477.15C503.11,477.15 433.32,446.69 433.32,420.29C433.32,393.89 503.13,381.55 597.32,381.55C691.51,381.55 775.09,396.08 775.09,422.48Z" style="fill-opacity:0.1;fill-rule:nonzero;"/>
    </g>
    <ellipse cx="762.64" cy="228.52" rx="10.31" ry="25.46" style="fill:rgb(70,67,83);"/>
    <ellipse cx="257.79" cy="228.52" rx="10.31" ry="25.46" style="fill:rgb(70,67,83);"/>
    <rect x="265.29" y="222.43" width="497.35" height="7.5" style="fill-opacity:0.1;"/>
    <rect x="265.29" y="221.18" width="497.35" height="7.5" style="fill:rgb(70,67,83);"/>
    <g transform="matrix(1,0,0,1,-95.23,-91.02)">
        <path d="M617,321.57C612.93,320.32 605.44,345 605.44,345L628.24,345C628.24,345 621.07,322.82 617,321.57ZM616.68,324.69C616.683,324.69 616.687,324.69 616.69,324.69C617.891,324.69 618.88,325.679 618.88,326.88C618.88,328.081 617.891,329.07 616.69,329.07C615.489,329.07 614.5,328.081 614.5,326.88C614.5,325.679 615.489,324.69 616.69,324.69L616.68,324.69ZM616.94,331.75C619.61,332.4 624.34,344.06 624.34,344.06L609.34,344.06C609.34,344.06 614.28,331.09 617,331.75L616.94,331.75Z" style="fill:rgb(70,67,83);fill-rule:nonzero;"/>
    </g>
    <g transform="matrix(1,0,0,1,-95.23,-91.02)">
        <path d="M894.3,511.19L312.3,511.19C313.153,503.043 314.153,494.913 315.3,486.8L330.01,384.32C333.864,357.921 356.732,338.137 383.41,338.12L405.75,338.12C417.085,338.16 428.107,341.869 437.16,348.69C460.3,365.96 526.04,378.42 603.54,378.42C681.04,378.42 746.81,366 770,348.69C779.053,341.869 790.075,338.16 801.41,338.12L837.6,338.12C853.238,338.12 866.748,349.459 869.46,364.86L889.21,476.86C891.21,488.287 892.907,499.73 894.3,511.19Z" style="fill:white;fill-opacity:0.03;fill-rule:nonzero;"/>
    </g>
    <g id="f7c3d2ec-a0cd-4215-8d90-993b7331bb50">
        <g transform="matrix(1,0,0,1,-95.23,-91.02)">
            <path d="M585.71,639C585.71,639 574.24,618 576.18,614.62C577.569,611.954 578.691,609.157 579.53,606.27C580.369,603.383 583.77,603.37 583.77,602.17C583.77,600.97 587.12,598.25 588.89,597.06C590.66,595.87 589.77,590.24 588.89,589.56C588.003,588.637 587.237,587.606 586.61,586.49C585.983,585.374 587.83,583.08 586.61,582.06C585.39,581.04 586.79,580.06 586.61,578.99C586.523,577.401 586.523,575.809 586.61,574.22C585.568,572.603 583.959,571.433 582.1,570.94L581.97,570.4L581.21,567.22C581.21,567.22 584.87,560.22 578.93,556.5C578.505,556.239 578.065,556.005 577.61,555.8C577.155,555.595 577.61,555.63 577.61,555.34C577.485,553.521 577.194,551.716 576.74,549.95C576.43,548.95 576.03,548.3 575.5,548.45C575.377,548.487 575.264,548.552 575.17,548.64C574.927,548.86 574.715,549.113 574.54,549.39C573.864,550.605 573.391,551.923 573.14,553.29C572.962,554.099 572.828,554.917 572.74,555.74C572.482,556.232 572.255,556.74 572.06,557.26C571.34,559.13 570.49,562.38 572.06,564.78C573.37,566.78 575.12,569.62 576.4,571.66L576.4,571.73L576.48,571.85L576.35,571.94L576.35,572.25L576.46,573.97L577.46,588.82C577.165,588.734 576.864,588.67 576.56,588.63C576.124,588.561 575.682,588.53 575.24,588.54C574.38,585.16 572.01,582 571.59,578.47C571.542,578.119 571.518,577.765 571.52,577.41C571.52,575.18 572.11,572.95 572.06,570.73C572.085,570.32 572.085,569.91 572.06,569.5L572.06,569.16C571.611,565.882 569.563,563.032 566.6,561.56C565.6,561.05 564.47,560.71 563.47,560.15C561.17,558.86 559.7,556.53 557.61,554.94C556.035,553.679 553.956,553.226 552,553.72C551.077,553.86 550.162,554.05 549.26,554.29C547.067,554.862 544.964,555.733 543.01,556.88C542.75,557.04 542.48,557.2 542.23,557.39C541.68,557.751 541.243,558.261 540.97,558.86C540.794,559.37 540.726,559.912 540.77,560.45L540.77,561.62C540.65,568.14 533.62,573.21 533.04,579.62L533.04,581.29C533.14,584.09 534.59,586.69 534.86,589.48L534.86,590.22C534.815,591.5 534.572,592.765 534.14,593.97C533.254,594.194 532.401,594.53 531.6,594.97C529.47,596.34 525.6,598.72 524.2,603.26C523.835,604.439 523.653,605.666 523.66,606.9C523.637,611.259 523.238,615.609 522.47,619.9C522.289,620.982 522.038,622.051 521.72,623.1C521.697,623.202 521.697,623.308 521.72,623.41L520.88,634.41L520.72,636.35L520.51,639.11C520.51,639.11 520.57,639.28 520.66,639.56C520.75,639.84 520.89,640.32 521,640.83C521.235,641.765 521.273,642.739 521.11,643.69C521.014,644.075 520.805,644.424 520.51,644.69L520.44,644.77C520.069,645.66 519.852,646.607 519.8,647.57C519.72,648.15 519.66,648.78 519.59,649.48C519.18,653.82 518.92,660.33 518.77,665.71C518.62,671.09 518.57,675.21 518.57,675.21C519.257,675.652 519.991,676.014 520.76,676.29C520.696,676.437 520.639,676.587 520.59,676.74C519.891,678.537 519.443,680.421 519.26,682.34C518.91,686.34 520.03,690.81 525.63,693.11C525.988,693.257 526.356,693.381 526.73,693.48C527.642,693.817 528.655,693.755 529.52,693.31L529.52,694.02C529.58,695.02 529.63,695.92 529.65,696.69C529.83,701.46 531.01,709.81 531.01,709.81C531.01,709.81 531.42,713.22 531.06,714.25C530.7,715.28 531.06,719.36 531.06,719.36C531.06,719.36 532.3,721.36 531.06,722.43C529.82,723.5 529.48,728.57 529.83,729.25C529.828,729.277 529.828,729.303 529.83,729.33C530.1,731.02 528.57,756.19 528.57,756.19C528.57,756.19 527.13,760.04 525.99,764.04C524.85,768.04 523.99,771.97 525.06,772.72C526.068,773.221 527.166,773.517 528.29,773.59L528.29,774.1C528.259,775.537 528.02,776.962 527.58,778.33C527.09,779.02 526.58,784.4 526.33,787.33L526.33,787.65C525.803,788.891 525.362,790.168 525.01,791.47C524.658,792.772 521.11,801.24 522.43,803.8C522.553,804.03 522.719,804.234 522.92,804.4C522.958,804.445 523.002,804.485 523.05,804.52C524.93,806.02 529.64,806.34 531.35,806.41L531.29,808.83L531.29,809L533.52,809L533.52,808.94C533.52,808.63 533.57,807.23 533.64,805.35L533.64,803.49C534.309,801.751 534.648,799.903 534.64,798.04C534.641,795.904 534.93,793.778 535.5,791.72C535.776,790.659 536.155,789.628 536.63,788.64C537.011,786.556 536.915,784.412 536.35,782.37C536.174,781.854 535.903,781.376 535.55,780.96C535.555,780.873 535.555,780.787 535.55,780.7L535.55,780.14C535.523,778.383 535.698,776.628 536.07,774.91C536.064,774.884 536.064,774.856 536.07,774.83C536.07,774.68 536.13,774.55 536.17,774.41L536.17,774.32L536.89,774.32C539.1,774.39 540.73,774.39 540.73,774.39C540.73,774.39 542.5,765.39 542.32,761.39L542.32,760.86C542.396,757.77 542.754,754.694 543.39,751.67L544.8,737.87C544.413,736.531 544.413,735.109 544.8,733.77C545.24,732.77 546.14,730.77 546.8,729.42C547.09,728.79 547.33,728.3 547.43,728.09L547.43,727.98C547.208,727.899 546.997,727.791 546.8,727.66C546.22,727.27 545.71,726.52 547.43,725.42C550.08,723.71 549.2,719.42 549.2,719.42C548.758,718.492 548.811,717.401 549.34,716.52C550.26,715.16 549.34,710.04 549.34,710.04C550.098,708.691 550.705,707.262 551.15,705.78C551.81,703.78 553.47,693.78 554.25,688.95C554.51,687.37 554.67,686.35 554.67,686.35L554.67,686.87L554.89,689.14L554.89,689.44L555.29,693.74C555.29,693.74 556.11,705.04 555.6,709.47C555.606,709.496 555.606,709.524 555.6,709.55C555.564,710.009 555.463,710.46 555.3,710.89C554.37,713.02 554.54,721.45 554.59,723.31L554.59,723.69C554.21,724.6 554.039,725.585 554.09,726.57C554.125,726.878 554.235,727.174 554.41,727.43C554.658,727.827 554.77,728.294 554.73,728.76L554.73,729.35C554.605,730.14 554.397,730.914 554.11,731.66C553.823,732.406 553.11,734.15 553.52,735.45C553.569,735.618 553.651,735.774 553.76,735.91C553.84,736.061 553.884,736.229 553.89,736.4C554.22,739.15 553.37,751.28 552.89,757.91C552.69,760.53 552.54,762.3 552.54,762.3L551.14,776.79L551.28,776.88C551.44,777 551.74,777.19 552.14,777.43L552.08,777.87C551.88,779.27 551.61,780.87 551.32,782.13C551.292,782.219 551.269,782.309 551.25,782.4C550.714,782.494 550.203,782.698 549.75,783C546.75,788.28 548.09,792.46 549.75,793.68C550.343,794.38 550.694,795.254 550.75,796.17L551.16,801.43L551.16,802.04C551.161,802.203 551.188,802.365 551.24,802.52L551.37,804.11L551.54,806.33L552.89,806.33L552.89,803.8L552.97,803.8C555.11,803.88 558.55,803.97 560.06,803.85L560.46,803.85C560.543,803.84 560.624,803.816 560.7,803.78C561.49,803.4 563.48,797.78 561.7,796.5C559.92,795.22 559.52,791.62 559.52,791.62C559.36,791.14 559.21,790.69 559.05,790.26C559.045,790.17 559.045,790.08 559.05,789.99C558.957,788.427 559.027,786.858 559.26,785.31C559.558,783.461 559.715,781.593 559.73,779.72L559.73,779.2C560.041,779.128 560.345,779.031 560.64,778.91L560.71,778.91C561.255,778.681 561.767,778.378 562.23,778.01L567.18,755.85L567.7,753.27L570.7,738.62C570.7,738.62 569.65,733.51 570.7,732.62C571.09,732.31 571.2,731 571.17,729.46C571.17,726.78 570.7,723.46 570.7,723.46C570.7,723.46 572.11,721.25 572.82,719.88C573.53,718.51 572.82,714.94 572.82,714.94L574.23,706.76C575.324,700.59 577.164,694.576 579.71,688.85C582.57,682.85 580.71,666.58 578.88,657.92L578.73,657.27L581.82,655.77L582.25,655.57C583.7,654.89 585.25,654.19 586.61,653.57L586.7,653.57C587.681,653.144 588.682,652.767 589.7,652.44C590.002,652.343 590.314,652.279 590.63,652.25C593.13,651.94 585.71,639 585.71,639ZM530.49,666.74L531.22,666.74C531.13,666.9 531.05,667.06 530.97,667.23C530.917,667.324 530.871,667.421 530.83,667.52C530.559,668.07 530.318,668.634 530.11,669.21C530.19,668.6 530.29,667.94 530.4,667.21L530.49,666.74ZM528.49,677.38L528.49,677.32C528.49,677.26 528.49,677.19 528.42,677.13L528.3,676.74C528.55,676.66 528.81,676.58 529.07,676.48C529.33,676.38 529.07,676.57 529.07,676.62C529.07,676.67 529.02,677 529,677.19C528.98,677.38 529,677.24 529,677.27L529,677.72C529,677.87 528.92,678.29 528.89,678.57L528.65,677.81C528.59,677.63 528.55,677.49 528.5,677.36L528.49,677.38Z" style="fill:url(#_Linear1);fill-rule:nonzero;"/>
        </g>
        <g transform="matrix(1,0,0,1,-95.23,-91.02)">
            <path d="M581.48,573.56L577.08,575.13L575.48,572.47C574.25,570.47 572.55,567.64 571.3,565.61C569.09,562.04 571.98,556.61 571.98,556.61C571.98,556.61 572.49,551.17 574.36,549.47C576.23,547.77 576.74,556.61 576.74,556.61C584.21,560 580.21,567.99 580.21,567.99L580.93,571.16L581.48,573.56Z" style="fill:rgb(190,111,114);fill-rule:nonzero;"/>
        </g>
        <g transform="matrix(1,0,0,1,-95.23,-91.02)">
            <path d="M581.48,573.56L577.08,575.13L575.48,572.47L575.48,572.24C577.104,571.21 579.056,570.824 580.95,571.16L581.48,573.56Z" style="fill-opacity:0.1;fill-rule:nonzero;"/>
        </g>
        <g transform="matrix(1,0,0,1,-95.23,-91.02)">
            <path d="M574.36,591.44L576.57,589.57L575.46,572.75C576.615,571.972 577.977,571.556 579.37,571.556C581.845,571.556 584.143,572.868 585.4,575C585.313,576.585 585.313,578.175 585.4,579.76C585.57,580.76 584.21,581.76 585.4,582.76C586.59,583.76 585.4,587.18 585.4,587.18C586.002,588.286 586.737,589.314 587.59,590.24C588.44,590.92 589.29,596.53 587.59,597.72C585.89,598.91 582.66,601.63 582.66,602.82C582.66,604.01 578.59,606.89 578.59,606.89L575,602.15L574.36,591.44Z" style="fill:rgb(0,179,251);fill-rule:nonzero;"/>
        </g>
        <g transform="matrix(1,0,0,1,-95.23,-91.02)">
            <path d="M526.61,693.57C518.37,690.08 520.2,681.57 521.75,677.25C522.065,676.383 522.429,675.535 522.84,674.71L527.46,671.9C527.46,671.9 528.4,674.31 529.41,677.54C531.75,685 534.44,696.89 526.61,693.57Z" style="fill:rgb(190,111,114);fill-rule:nonzero;"/>
        </g>
        <g transform="matrix(1,0,0,1,-95.23,-91.02)">
            <path d="M537.93,771.44C537.37,772.527 536.956,773.684 536.7,774.88C536.296,776.802 536.125,778.767 536.19,780.73C536.202,781.482 536.252,782.233 536.34,782.98L527.16,789.29C527.16,789.29 527.21,788.55 527.3,787.46C527.54,784.57 528.03,779.21 528.5,778.52C528.93,777.154 529.163,775.732 529.19,774.3C529.33,772.55 529.39,770.93 529.39,770.93C529.39,770.93 540.41,766.79 537.93,771.44Z" style="fill:rgb(190,111,114);fill-rule:nonzero;"/>
        </g>
        <g transform="matrix(1,0,0,1,-95.23,-91.02)">
            <path d="M559.59,776C559.59,776 559.59,777.75 559.53,779.8C559.517,781.665 559.37,783.526 559.09,785.37C558.857,786.912 558.787,788.474 558.88,790.03C558.94,792.03 559.09,793.9 559.09,793.9C559.09,793.9 549.72,785.05 550.67,784.35C551.079,783.755 551.337,783.068 551.42,782.35C551.7,781.11 551.96,779.49 552.15,778.1C552.38,776.45 552.52,775.1 552.52,775.1L559.59,776Z" style="fill:rgb(190,111,114);fill-rule:nonzero;"/>
        </g>
        <g transform="matrix(1,0,0,1,-95.23,-91.02)">
            <path d="M537.93,771.44C537.37,772.527 536.956,773.684 536.7,774.88C534.188,774.814 531.682,774.621 529.19,774.3C529.33,772.55 529.39,770.93 529.39,770.93C529.39,770.93 540.41,766.79 537.93,771.44Z" style="fill-opacity:0.1;fill-rule:nonzero;"/>
        </g>
        <g transform="matrix(1,0,0,1,-95.23,-91.02)">
            <path d="M559.59,776C559.59,776 559.59,777.75 559.53,779.8C556.61,780.54 553.61,779.05 552.15,778.15C552.38,776.5 552.52,775.15 552.52,775.15L559.59,776Z" style="fill-opacity:0.1;fill-rule:nonzero;"/>
        </g>
        <g transform="matrix(1,0,0,1,-95.23,-91.02)">
            <path d="M578.78,689.15C576.328,694.872 574.559,700.864 573.51,707L572.15,715.15C572.15,715.15 572.83,718.72 572.15,720.08C571.47,721.44 570.15,723.65 570.15,723.65C570.15,723.65 571.15,731.98 570.15,732.83C569.15,733.68 570.15,738.77 570.15,738.77L566.75,755.94L562,778C557.41,781.74 551.31,777 551.31,777L552.66,762.55C552.66,762.55 554.66,737.23 553.85,736.21C553.04,735.19 554.19,731.97 554.19,731.97C554.19,731.97 555.38,728.91 554.53,727.72C553.68,726.53 554.7,723.98 554.7,723.98C554.7,723.98 554.36,713.61 555.38,711.23C556.4,708.85 555.38,694.13 555.38,694.13L554.95,689.55L554.72,687.01L554.72,686.76L554.31,689.36C553.56,694.15 551.96,704.09 551.31,706.14C550.882,707.613 550.295,709.034 549.56,710.38C548.825,711.726 550.45,715.48 549.56,716.84C549.053,717.725 549.004,718.803 549.43,719.73C549.856,720.657 550.28,723.98 547.73,725.73C545.18,727.48 547.73,728.28 547.73,728.28C547.73,728.28 545.86,732.36 545.18,734.06C544.804,735.391 544.804,736.799 545.18,738.13L543.82,751.9C543.172,755.09 542.837,758.335 542.82,761.59C542.99,765.49 541.29,774.5 541.29,774.5C541.29,774.5 528.21,774.5 526.19,772.97C524.17,771.44 529.57,756.49 529.57,756.49C529.57,756.49 531.1,730.32 530.76,729.64C530.42,728.96 530.76,723.86 531.95,722.84C533.14,721.82 531.95,719.78 531.95,719.78C531.95,719.78 531.61,715.7 531.95,714.68C532.107,713.21 532.087,711.726 531.89,710.26C531.693,708.794 530.76,701.94 530.59,697.18C530.42,692.42 529.59,681.71 529.59,681.71C529.59,681.71 530.47,675.1 530.59,671.94C530.742,670.543 531.153,669.187 531.8,667.94C532.535,666.4 533.377,664.913 534.32,663.49C535.263,662.067 574.6,651.6 576.32,652.79C576.76,653.1 577.42,655.22 578.06,658.33C579.77,667 581.53,683.15 578.78,689.15Z" style="fill:rgb(0,179,251);fill-rule:nonzero;"/>
        </g>
        <g transform="matrix(1,0,0,1,-95.23,-91.02)">
            <path d="M578.78,689.15C576.328,694.872 574.559,700.864 573.51,707L572.15,715.15C572.15,715.15 572.83,718.72 572.15,720.08C571.47,721.44 570.15,723.65 570.15,723.65C570.15,723.65 571.15,731.98 570.15,732.83C569.15,733.68 570.15,738.77 570.15,738.77L566.75,755.94L562,778C557.41,781.74 551.31,777 551.31,777L552.66,762.55C552.66,762.55 554.66,737.23 553.85,736.21C553.04,735.19 554.19,731.97 554.19,731.97C554.19,731.97 555.38,728.91 554.53,727.72C553.68,726.53 554.7,723.98 554.7,723.98C554.7,723.98 554.36,713.61 555.38,711.23C556.4,708.85 555.38,694.13 555.38,694.13L554.95,689.55L554.72,687.01L554.72,686.76L554.31,689.36C553.56,694.15 551.96,704.09 551.31,706.14C550.882,707.613 550.295,709.034 549.56,710.38C548.825,711.726 550.45,715.48 549.56,716.84C549.053,717.725 549.004,718.803 549.43,719.73C549.856,720.657 550.28,723.98 547.73,725.73C545.18,727.48 547.73,728.28 547.73,728.28C547.73,728.28 545.86,732.36 545.18,734.06C544.804,735.391 544.804,736.799 545.18,738.13L543.82,751.9C543.172,755.09 542.837,758.335 542.82,761.59C542.99,765.49 541.29,774.5 541.29,774.5C541.29,774.5 528.21,774.5 526.19,772.97C524.17,771.44 529.57,756.49 529.57,756.49C529.57,756.49 531.1,730.32 530.76,729.64C530.42,728.96 530.76,723.86 531.95,722.84C533.14,721.82 531.95,719.78 531.95,719.78C531.95,719.78 531.61,715.7 531.95,714.68C532.107,713.21 532.087,711.726 531.89,710.26C531.693,708.794 530.76,701.94 530.59,697.18C530.42,692.42 529.59,681.71 529.59,681.71C529.59,681.71 530.47,675.1 530.59,671.94C530.742,670.543 531.153,669.187 531.8,667.94C532.535,666.4 533.377,664.913 534.32,663.49C535.263,662.067 574.6,651.6 576.32,652.79C576.76,653.1 577.42,655.22 578.06,658.33C579.77,667 581.53,683.15 578.78,689.15Z" style="fill-opacity:0.15;fill-rule:nonzero;"/>
        </g>
        <circle cx="458.74" cy="482.55" r="11.73" style="fill:rgb(161,97,106);"/>
        <g transform="matrix(1,0,0,1,-95.23,-91.02)">
            <path d="M578,658.33C576.65,659.02 575.75,659.5 575.75,659.5C575.75,659.5 556.75,668.5 551.29,668C547.1,667.6 536.41,667.82 531.76,667.94C532.495,666.4 533.337,664.913 534.28,663.49C535.223,662.067 574.56,651.6 576.28,652.79C576.67,653.1 577.33,655.22 578,658.33Z" style="fill-opacity:0.1;fill-rule:nonzero;"/>
        </g>
        <g transform="matrix(1,0,0,1,-95.23,-91.02)">
            <path d="M545.81,592.29C545.81,592.29 534.93,593.99 532.39,595.69C529.85,597.39 524.74,600.62 524.74,607.58C524.768,613.019 524.14,618.441 522.87,623.73C522.19,625.73 533.58,642.25 533.58,642.25L529.5,667.25C529.5,667.25 545.83,666.74 551.26,667.25C556.69,667.76 575.72,658.75 575.72,658.75C575.72,658.75 586.93,652.81 589.31,652.64C591.69,652.47 584.55,639.55 584.55,639.55C584.55,639.55 573.55,618.65 575.38,615.25C576.722,612.584 577.803,609.794 578.61,606.92L576.61,589.59C574.708,589.025 572.649,589.336 571,590.44C568.45,592.31 559.78,591.29 559.78,591.29L545.81,592.29Z" style="fill:rgb(0,179,251);fill-rule:nonzero;"/>
        </g>
        <g transform="matrix(1,0,0,1,-95.23,-91.02)">
            <path d="M527.37,622.54L523.12,623.73L521.94,639.73C521.94,639.73 523.46,643.98 521.94,645.34C520.42,646.7 520.07,675.76 520.07,675.76C523.249,677.863 527.298,678.185 530.77,676.61C534.242,675.035 529.92,673.38 532.47,661.61C535.02,649.84 535,644 535,644C535,644 535,629.39 536.19,627C537.38,624.61 536.19,618.67 536.19,618.67C536.19,618.67 533.81,615.44 533.98,614.25C534.15,613.06 527.37,622.54 527.37,622.54Z" style="fill-opacity:0.1;fill-rule:nonzero;"/>
        </g>
        <g transform="matrix(1,0,0,1,-95.23,-91.02)">
            <path d="M529.41,677.54C526.907,678.38 524.182,678.277 521.75,677.25C522.065,676.383 522.429,675.535 522.84,674.71L527.46,671.9C527.46,671.9 528.4,674.31 529.41,677.54Z" style="fill-opacity:0.1;fill-rule:nonzero;"/>
        </g>
        <g transform="matrix(1,0,0,1,-95.23,-91.02)">
            <path d="M527.12,622.54L522.87,623.73L521.68,639.73C521.68,639.73 523.21,643.98 521.68,645.34C520.15,646.7 519.81,675.76 519.81,675.76C522.993,677.863 527.045,678.185 530.52,676.61C533.995,675.035 529.67,673.38 532.22,661.61C534.77,649.84 534.76,644 534.76,644C534.76,644 534.76,629.39 535.95,627C537.14,624.61 535.95,618.67 535.95,618.67C535.95,618.67 533.58,615.44 533.75,614.25C533.92,613.06 527.12,622.54 527.12,622.54Z" style="fill:rgb(0,179,251);fill-rule:nonzero;"/>
        </g>
        <g transform="matrix(1,0,0,1,-95.23,-91.02)">
            <path d="M570.62,625.09C570.62,625.09 568.41,644.09 561.95,647.69C562,647.69 576.4,643.61 570.62,625.09Z" style="fill-opacity:0.1;fill-rule:nonzero;"/>
        </g>
        <g transform="matrix(1,0,0,1,-95.23,-91.02)">
            <path d="M538.16,626.79C538.16,626.79 546.16,630.7 544.28,633.41C542.4,636.12 538.16,626.79 538.16,626.79Z" style="fill-opacity:0.1;fill-rule:nonzero;"/>
        </g>
        <g transform="matrix(1,0,0,1,-95.23,-91.02)">
            <path d="M538.16,634.6C538.16,634.6 543.26,639.87 542.24,641.74C541.22,643.61 538.16,634.6 538.16,634.6Z" style="fill-opacity:0.1;fill-rule:nonzero;"/>
        </g>
        <g transform="matrix(1,0,0,1,-95.23,-91.02)">
            <path d="M579.29,590.93C579.29,590.93 581.29,594.33 581.47,596.54C581.65,598.75 579.29,590.93 579.29,590.93Z" style="fill-opacity:0.1;fill-rule:nonzero;"/>
        </g>
        <g transform="matrix(1,0,0,1,-95.23,-91.02)">
            <path d="M579.29,586.34C579.29,586.34 580.29,585.49 582.85,586.34C585.41,587.19 579.29,586.34 579.29,586.34Z" style="fill-opacity:0.1;fill-rule:nonzero;"/>
        </g>
        <g transform="matrix(1,0,0,1,-95.23,-91.02)">
            <path d="M569.47,685.67C565.263,686.269 560.971,685.72 557.05,684.08L554.9,689.56L554.67,687.02C555.02,684.89 555.67,682.61 557.05,682.02C560.689,684.541 565.046,685.822 569.47,685.67Z" style="fill-opacity:0.1;fill-rule:nonzero;"/>
        </g>
        <g transform="matrix(1,0,0,1,-95.23,-91.02)">
            <path d="M534.62,692.81C534.62,692.81 545.07,695 548,694.59L534.62,692.81Z" style="fill-opacity:0.1;fill-rule:nonzero;"/>
        </g>
        <g transform="matrix(1,0,0,1,-95.23,-91.02)">
            <path d="M535.7,695.55C535.7,695.55 540.16,695.36 542.39,696.25L535.7,695.55Z" style="fill-opacity:0.1;fill-rule:nonzero;"/>
        </g>
        <g transform="matrix(1,0,0,1,-95.23,-91.02)">
            <path d="M536.21,697.39C538.245,697.831 540.311,698.109 542.39,698.22L536.21,697.39Z" style="fill-opacity:0.1;fill-rule:nonzero;"/>
        </g>
        <g transform="matrix(1,0,0,1,-95.23,-91.02)">
            <path d="M536,720.78C536.2,720.65 544.93,718.62 546,720.08L536,720.78Z" style="fill-opacity:0.1;fill-rule:nonzero;"/>
        </g>
        <g transform="matrix(1,0,0,1,-95.23,-91.02)">
            <path d="M536,723.46C536,723.46 543.59,722.57 543.78,723.46C543.97,724.35 536,723.46 536,723.46Z" style="fill-opacity:0.1;fill-rule:nonzero;"/>
        </g>
        <g transform="matrix(1,0,0,1,-95.23,-91.02)">
            <path d="M536,725.88C536,725.88 544.1,724.22 545,724.61C545.9,725 536,725.88 536,725.88Z" style="fill-opacity:0.1;fill-rule:nonzero;"/>
        </g>
        <g transform="matrix(1,0,0,1,-95.23,-91.02)">
            <path d="M536.34,783L527.16,789.31C527.16,789.31 527.21,788.57 527.3,787.48C528.393,784.662 529.986,782.064 532,779.81C534.07,779.28 535.38,779.81 536.19,780.75C536.202,781.502 536.252,782.253 536.34,783Z" style="fill-opacity:0.1;fill-rule:nonzero;"/>
        </g>
        <g transform="matrix(1,0,0,1,-95.23,-91.02)">
            <path d="M537.23,788.65C535.938,791.603 535.287,794.797 535.32,798.02C535.359,800.672 534.667,803.285 533.32,805.57C533.131,805.893 532.917,806.2 532.68,806.49C532.443,806.78 526.3,806.49 524.07,804.59C523.825,804.398 523.623,804.156 523.48,803.88C522.2,801.33 525.96,791.58 525.96,791.58C526.994,787.307 529.053,783.349 531.96,780.05C539.14,778.2 537.23,788.65 537.23,788.65Z" style="fill:rgb(53,50,62);fill-rule:nonzero;"/>
        </g>
        <g transform="matrix(1,0,0,1,-95.23,-91.02)">
            <path d="M533.37,805.57C533.181,805.893 532.967,806.2 532.73,806.49C532.493,806.78 526.35,806.49 524.12,804.59C525.22,800.96 528.72,789.97 530.36,791.84C532,793.71 533,802 533.37,805.57Z" style="fill-opacity:0.1;fill-rule:nonzero;"/>
        </g>
        <g transform="matrix(1,0,0,1,-95.23,-91.02)">
            <path d="M532.49,792.52L532.05,809L534.19,809C534.19,809 534.53,794.56 535.49,792.54C536.45,790.52 532.49,792.52 532.49,792.52Z" style="fill:rgb(53,50,62);fill-rule:nonzero;"/>
        </g>
        <g transform="matrix(1,0,0,1,-95.23,-91.02)">
            <path d="M559.09,793.87C559.09,793.87 549.72,785.02 550.67,784.32C551.079,783.725 551.337,783.038 551.42,782.32C553.22,782 556.3,782.76 558.88,789.95C558.94,792 559.09,793.87 559.09,793.87Z" style="fill-opacity:0.1;fill-rule:nonzero;"/>
        </g>
        <g transform="matrix(1,0,0,1,-95.23,-91.02)">
            <path d="M560.49,803.75C560.416,803.78 560.339,803.804 560.26,803.82C557.785,803.961 555.305,803.961 552.83,803.82C551.97,803.793 551.275,803.081 551.27,802.22L551.27,800.06C551.16,797.55 550.85,794.56 549.96,793.88C548.37,792.67 547.1,788.5 549.96,783.24C549.96,783.24 555.44,779.06 559.39,791.63C559.39,791.63 559.77,795.22 561.49,796.5C563.21,797.78 561.25,803.37 560.49,803.75Z" style="fill:rgb(53,50,62);fill-rule:nonzero;"/>
        </g>
        <g transform="matrix(1,0,0,1,-95.23,-91.02)">
            <path d="M560.26,803.82C557.785,803.961 555.305,803.961 552.83,803.82C551.97,803.793 551.275,803.081 551.27,802.22L551.27,800.06C551.96,797.06 552.95,793.88 554.27,793.17C554.18,793.16 558.05,792.72 560.26,803.82Z" style="fill-opacity:0.1;fill-rule:nonzero;"/>
        </g>
        <path d="M455.38,701.77L456.4,715.47L457.71,715.47L457.71,700.61L455.38,701.77Z" style="fill:rgb(53,50,62);fill-rule:nonzero;"/>
        <g transform="matrix(1,0,0,1,-95.23,-91.02)">
            <path d="M553.8,554.88C550.096,555.153 546.51,556.305 543.34,558.24C542.469,558.665 541.765,559.369 541.34,560.24C541.136,561.036 541.082,561.864 541.18,562.68C541.29,569.68 533.45,575.03 533.7,582.05C533.8,584.84 535.2,587.43 535.45,590.21C535.88,594.84 533.14,599.11 530.51,602.95C533.218,603.117 535.888,602.232 537.96,600.48C540.722,609.731 541.067,619.538 538.96,628.96L542.72,628.96C543.092,628.935 543.466,628.983 543.82,629.1C544.152,629.253 544.449,629.475 544.69,629.75C548.2,633.24 550.56,638.41 549.21,643.19L557.21,640.19C559.158,639.553 561.017,638.669 562.74,637.56C564.47,636.423 565.693,634.659 566.15,632.64C566.36,631.42 566.3,629.95 567.3,629.24C567.799,628.979 568.33,628.784 568.88,628.66C571.08,627.88 572.05,625.34 572.49,623.06C573.04,620.256 573.211,617.39 573,614.54C572.65,609.77 571.24,604.92 572.4,600.27C573.06,597.66 574.52,595.27 574.64,592.52C574.83,588.07 571.35,584.23 570.83,579.8C570.47,576.72 571.58,573.6 571.22,570.51C570.809,567.282 568.847,564.45 565.97,562.93C564.97,562.42 563.91,562.08 562.97,561.53C560.75,560.24 559.34,557.92 557.33,556.33C555.32,554.74 551.96,554.14 550.45,556.21L553.8,554.88Z" style="fill-opacity:0.1;fill-rule:nonzero;"/>
        </g>
        <g transform="matrix(1,0,0,1,-95.23,-91.02)">
            <path d="M553.8,554.37C550.096,554.643 546.51,555.795 543.34,557.73C542.469,558.155 541.765,558.859 541.34,559.73C541.136,560.526 541.082,561.354 541.18,562.17C541.29,569.17 533.45,574.52 533.7,581.54C533.8,584.33 535.2,586.93 535.45,589.7C535.88,594.34 533.14,598.6 530.51,602.44C533.227,602.626 535.914,601.751 538,600C540.762,609.251 541.107,619.058 539,628.48L542.76,628.48C543.132,628.455 543.506,628.503 543.86,628.62C544.192,628.773 544.489,628.995 544.73,629.27C548.24,632.76 550.6,637.93 549.25,642.71L557.25,639.71C559.198,639.073 561.057,638.189 562.78,637.08C564.51,635.943 565.733,634.179 566.19,632.16C566.4,630.94 566.34,629.47 567.34,628.76C567.839,628.499 568.37,628.304 568.92,628.18C571.12,627.4 572.09,624.86 572.53,622.58C573.08,619.776 573.251,616.91 573.04,614.06C572.69,609.29 571.28,604.44 572.44,599.79C573.1,597.18 574.56,594.74 574.68,592.04C574.87,587.59 571.39,583.75 570.87,579.32C570.51,576.24 571.62,573.12 571.26,570.03C570.849,566.802 568.887,563.97 566.01,562.45C565.01,561.94 563.95,561.6 563.01,561.05C560.79,559.76 559.38,557.44 557.37,555.85C555.36,554.26 552,553.66 550.49,555.73L553.8,554.37Z" style="fill:rgb(162,101,101);fill-rule:nonzero;"/>
        </g>
        <g opacity="0.1">
            <g transform="matrix(1,0,0,1,-95.23,-91.02)">
                <path d="M541.2,560.46L541.2,560.93C541.19,560.78 541.2,560.62 541.2,560.46Z" style="fill-rule:nonzero;"/>
            </g>
            <g transform="matrix(1,0,0,1,-95.23,-91.02)">
                <path d="M570.88,576.8C571.193,574.651 571.344,572.482 571.33,570.31C571.016,572.459 570.866,574.628 570.88,576.8Z" style="fill-rule:nonzero;"/>
            </g>
            <g transform="matrix(1,0,0,1,-95.23,-91.02)">
                <path d="M535.48,587.55C535.25,585.02 534.07,582.64 533.79,580.13C533.735,580.591 533.715,581.056 533.73,581.52C533.83,584.28 535.2,586.85 535.47,589.6C535.544,588.919 535.547,588.232 535.48,587.55Z" style="fill-rule:nonzero;"/>
            </g>
            <g transform="matrix(1,0,0,1,-95.23,-91.02)">
                <path d="M572.48,597.6C572.091,599.26 571.95,600.969 572.06,602.67C572.107,601.679 572.247,600.694 572.48,599.73C573.14,597.12 574.6,594.68 574.72,591.98C574.737,591.499 574.713,591.017 574.65,590.54C574.35,593 573.08,595.21 572.48,597.6Z" style="fill-rule:nonzero;"/>
            </g>
            <g transform="matrix(1,0,0,1,-95.23,-91.02)">
                <path d="M538,597.83C536.305,599.255 534.207,600.115 532,600.29C531.53,601.01 531,601.73 530.57,602.42C533.264,602.596 535.926,601.729 538,600C539.486,604.954 540.283,610.089 540.37,615.26C540.5,609.362 539.7,603.479 538,597.83Z" style="fill-rule:nonzero;"/>
            </g>
            <g transform="matrix(1,0,0,1,-95.23,-91.02)">
                <path d="M572.58,620.39C572.13,622.68 571.16,625.22 568.96,625.99C568.409,626.113 567.877,626.311 567.38,626.58C566.38,627.29 566.44,628.76 566.23,629.97C565.773,631.989 564.55,633.753 562.82,634.89C561.097,635.999 559.238,636.883 557.29,637.52L549.66,640.38C549.621,641.148 549.497,641.909 549.29,642.65L557.29,639.65C559.238,639.013 561.097,638.129 562.82,637.02C564.55,635.883 565.773,634.119 566.23,632.1C566.44,630.88 566.38,629.41 567.38,628.7C567.879,628.439 568.41,628.244 568.96,628.12C571.16,627.34 572.13,624.8 572.58,622.52C573.039,620.142 573.231,617.72 573.15,615.3C573.09,617.009 572.9,618.71 572.58,620.39Z" style="fill-rule:nonzero;"/>
            </g>
            <g transform="matrix(1,0,0,1,-95.23,-91.02)">
                <path d="M544.77,627.08C544.526,626.808 544.23,626.587 543.9,626.43C543.546,626.313 543.172,626.265 542.8,626.29L539.47,626.29C539.34,627 539.2,627.71 539.04,628.41L542.8,628.41C543.172,628.385 543.546,628.433 543.9,628.55C544.232,628.703 544.529,628.925 544.77,629.2C547.427,631.737 549.139,635.108 549.62,638.75C550.05,634.51 547.86,630.15 544.77,627.08Z" style="fill-rule:nonzero;"/>
            </g>
        </g>
        <g transform="matrix(1,0,0,1,-95.23,-91.02)">
            <path d="M526.12,641C526.12,641 529.12,639.72 529.84,641C530.56,642.28 526.12,641 526.12,641Z" style="fill-opacity:0.1;fill-rule:nonzero;"/>
        </g>
        <g transform="matrix(1,0,0,1,-95.23,-91.02)">
            <path d="M527.17,643.16C527.17,643.16 530.17,641.88 530.89,643.16C531.61,644.44 527.17,643.16 527.17,643.16Z" style="fill-opacity:0.1;fill-rule:nonzero;"/>
        </g>
    </g>
    <g transform="matrix(1,0,0,1,-95.23,-91.02)">
        <path d="M311.82,149.79L312.09,151.89L321.22,153.18C321.22,153.18 321.97,152.62 323.14,151.86C325.31,150.45 328.93,148.33 332.03,147.73C336.8,146.79 352.03,139.96 347.11,139.51C342.19,139.06 342.72,140.08 342.72,140.08C342.72,140.08 337.32,134.78 331.72,139.63C327.49,143.31 318.18,147.26 313.95,148.95L311.82,149.79Z" style="fill:rgb(239,183,185);fill-rule:nonzero;"/>
    </g>
    <g transform="matrix(1,0,0,1,-95.23,-91.02)">
        <path d="M348.27,125.58C349.666,125.001 351.137,124.624 352.64,124.46C354.164,124.306 355.683,124.812 356.81,125.85C357.4,126.46 357.81,127.24 358.35,127.85C361.13,130.85 366.53,128.6 369.88,130.92C371.94,132.34 372.58,135.04 373.31,137.44C374.04,139.84 375.37,142.49 377.83,143C379.021,143.113 380.222,143.066 381.4,142.86C382.598,142.672 383.811,143.119 384.6,144.04C385.74,145.76 384.17,148.66 385.82,149.89C387.29,150.98 389.97,149.45 391,150.98C391.399,151.806 391.261,152.796 390.65,153.48C390.037,154.136 389.475,154.838 388.97,155.58C388.729,156.038 388.603,156.548 388.603,157.066C388.603,158.816 390.043,160.256 391.793,160.256C391.899,160.256 392.005,160.251 392.11,160.24C393.11,160.14 394.26,159.54 395.17,160.06C395.726,160.455 396.067,161.088 396.09,161.77C396.242,164.154 394.466,166.264 392.09,166.52C390.32,166.63 388.69,165.67 387.09,164.86C385.49,164.05 383.65,163.36 382,164.03C381.246,164.404 380.554,164.893 379.95,165.48C378.07,167.057 375.945,168.316 373.66,169.21C371.66,169.99 369.31,170.47 367.38,169.49C365.21,168.38 364.09,165.67 361.79,164.85C359.49,164.03 356.86,165.56 354.66,166.85C352.46,168.14 349.51,169.25 347.52,167.64C345.53,166.03 346.04,162.44 344.73,160.02C344.204,159.114 343.491,158.33 342.64,157.72C341.17,156.58 339.5,155.72 338.03,154.62C336.476,153.579 335.352,152.007 334.87,150.2C334.44,148.01 335.49,145.81 336.67,143.92C337.85,142.03 339.24,140.17 339.67,137.98C339.95,136.34 339.67,134.63 340.04,132.98C340.586,131.001 342.09,129.422 344.04,128.78C345.12,128.41 345.32,128.5 345.86,127.55C346.358,126.59 347.23,125.877 348.27,125.58Z" style="fill:rgb(248,109,112);fill-rule:nonzero;"/>
    </g>
    <g opacity="0.1">
        <g transform="matrix(1,0,0,1,-95.23,-91.02)">
            <path d="M384.86,144.72C385.089,145.679 385.147,146.671 385.03,147.65C384.788,146.693 384.73,145.699 384.86,144.72Z" style="fill-rule:nonzero;"/>
        </g>
        <g transform="matrix(1,0,0,1,-95.23,-91.02)">
            <path d="M389,155.77C388.83,156.105 388.722,156.467 388.68,156.84C388.32,155.964 388.36,154.974 388.79,154.13C389.295,153.388 389.857,152.686 390.47,152.03C390.684,151.742 390.85,151.421 390.96,151.08C390.986,151.108 391.009,151.138 391.03,151.17C391.441,151.994 391.301,152.991 390.68,153.67C390.07,154.329 389.509,155.03 389,155.77Z" style="fill-rule:nonzero;"/>
        </g>
        <g transform="matrix(1,0,0,1,-95.23,-91.02)">
            <path d="M337.84,153.19C339.31,154.31 340.98,155.19 342.45,156.29C343.299,156.903 344.011,157.687 344.54,158.59C345.85,161.01 345.19,164.48 347.33,166.21C349.47,167.94 352.28,166.74 354.47,165.42C356.66,164.1 359.19,162.55 361.6,163.42C364.01,164.29 365.02,166.95 367.19,168.06C369.12,169.06 371.46,168.56 373.47,167.78C375.755,166.886 377.88,165.627 379.76,164.05C380.364,163.463 381.056,162.974 381.81,162.6C383.46,161.93 385.32,162.6 386.9,163.43C388.48,164.26 390.12,165.2 391.9,165.09C393.998,164.86 395.67,163.188 395.9,161.09C396.01,161.365 396.08,161.655 396.11,161.95C396.267,164.336 394.488,166.449 392.11,166.7C390.33,166.81 388.7,165.85 387.11,165.04C385.52,164.23 383.66,163.54 382.01,164.21C381.274,164.59 380.6,165.079 380.01,165.66C378.128,167.235 376.004,168.494 373.72,169.39C371.72,170.17 369.36,170.65 367.44,169.67C365.26,168.56 364.15,165.85 361.84,165.03C359.53,164.21 356.91,165.74 354.72,167.03C352.53,168.32 349.57,169.42 347.58,167.82C345.43,166.09 346.09,162.62 344.78,160.2C344.257,159.292 343.544,158.508 342.69,157.9C341.23,156.76 339.56,155.9 338.08,154.8C336.525,153.761 335.404,152.188 334.93,150.38C334.852,149.995 334.819,149.603 334.83,149.21C335.389,150.82 336.443,152.214 337.84,153.19Z" style="fill-rule:nonzero;"/>
        </g>
    </g>
    <g transform="matrix(1,0,0,1,-95.23,-91.02)">
        <path d="M341.75,203.34L338.44,204.05C338.44,204.05 341.71,209.42 346.74,205.9C351.77,202.38 341.75,203.34 341.75,203.34Z" style="fill:rgb(76,73,129);fill-rule:nonzero;"/>
    </g>
    <g transform="matrix(1,0,0,1,-95.23,-91.02)">
        <path d="M341.75,203.34L338.44,204.05C338.44,204.05 341.71,209.42 346.74,205.9C351.77,202.38 341.75,203.34 341.75,203.34Z" style="fill-opacity:0.1;fill-rule:nonzero;"/>
    </g>
    <g transform="matrix(1,0,0,1,-95.23,-91.02)">
        <path d="M413.65,253.33C413.65,253.33 418.24,255.7 422.52,258.45C425.59,260.45 428.52,262.57 429.45,264.19C431.73,268.06 442.8,272.24 442.8,272.24L453.8,280.61C456.39,281.47 458.91,284.61 459.94,286.02C460.26,286.45 460.43,286.72 460.43,286.72L464.84,286.15L467.16,283.15C467.16,283.15 467.75,276.5 463.16,276.58C462.264,276.539 461.386,276.314 460.58,275.92C455.66,273.74 448.77,266.92 448.77,266.92C448.77,266.92 437.06,252.29 433.56,251.81C433.185,251.753 432.817,251.659 432.46,251.53C428.9,250.28 423.8,245.69 423.8,245.69L413.65,253.33Z" style="fill:rgb(239,183,185);fill-rule:nonzero;"/>
    </g>
    <g transform="matrix(1,0,0,1,-95.23,-91.02)">
        <path d="M368.25,295.6C369.41,302.6 374.74,316.04 376.45,318.84C378.57,322.31 379.69,329.25 379.69,329.25L380.31,334.07C380.423,334.749 380.656,335.403 381,336C381.185,336.344 381.389,336.678 381.61,337L390.43,334.29C390.43,334.29 389.92,332.29 389.15,329.93C388.38,327.57 387.22,324.68 386.15,323.6C384,321.48 383.67,314.02 383.67,314.02C383.67,314.02 381.88,299.66 381.33,297.86C380.803,296.135 380.468,294.358 380.33,292.56C380.25,291.56 380.19,290.5 380.18,289.25C379.999,285.666 379.534,282.101 378.79,278.59L368.5,280.46L368.23,291.95C367.944,293.151 367.951,294.403 368.25,295.6Z" style="fill:rgb(239,183,185);fill-rule:nonzero;"/>
    </g>
    <g transform="matrix(1,0,0,1,-95.23,-91.02)">
        <path d="M459.93,286C460.25,286.43 460.42,286.7 460.42,286.7L464.83,286.13L467.15,283.13C467.15,283.13 467.74,276.48 463.15,276.56C462.254,276.519 461.376,276.294 460.57,275.9C460.2,277.9 462.43,279.54 462.43,279.54C462.43,279.54 463.35,280.21 463.13,283.34C463,285.47 461.11,285.92 459.93,286Z" style="fill-opacity:0.1;fill-rule:nonzero;"/>
    </g>
    <g transform="matrix(1,0,0,1,-95.23,-91.02)">
        <path d="M459.45,286.43C459.74,287.5 462.52,289.08 464.45,290.06C465.4,290.55 466.14,290.89 466.29,290.96C466.74,291.18 469.07,288.58 469.39,286.49C469.71,284.4 475.28,277.87 475.28,277.87C476.458,275.298 477.159,272.533 477.35,269.71C477.56,266.86 476.35,266.64 474.98,267.28C473.98,267.81 473.082,268.514 472.33,269.36C471.378,270.258 470.193,270.871 468.91,271.13C467.161,271.563 465.492,272.276 463.97,273.24C462.62,274.11 461.31,275.17 461.07,276.11C460.56,278.16 462.9,279.9 462.9,279.9C462.9,279.9 463.82,280.58 463.61,283.7C463.4,286.82 459.42,286.33 459.45,286.43Z" style="fill:rgb(255,100,132);fill-rule:nonzero;"/>
    </g>
    <g transform="matrix(1,0,0,1,-95.23,-91.02)">
        <path d="M464.45,290.06C465.4,290.55 466.14,290.89 466.29,290.96C466.74,291.18 469.07,288.58 469.39,286.49C469.71,284.4 475.28,277.87 475.28,277.87C476.458,275.298 477.159,272.533 477.35,269.71C477.56,266.86 476.35,266.64 474.98,267.28C474.75,269.54 474.18,273.93 472.98,276.22C471.64,278.94 466,287.69 464.45,290.06Z" style="fill-opacity:0.1;fill-rule:nonzero;"/>
    </g>
    <g transform="matrix(1,0,0,1,-95.23,-91.02)">
        <path d="M381.09,335.78C381.067,335.839 381.041,335.895 381.01,335.95C381.195,336.294 381.399,336.628 381.62,336.95L390.44,334.24C390.44,334.24 389.93,332.24 389.16,329.88C385.67,328.88 380.67,335.01 380.67,335.01L381.09,335.78Z" style="fill-opacity:0.1;fill-rule:nonzero;"/>
    </g>
    <g transform="matrix(1,0,0,1,-95.23,-91.02)">
        <path d="M380.53,342.35C380.53,342.35 387.88,344.93 391.2,344.53C393.71,344.23 393.82,343.06 393.65,340.66C393.59,339.9 393.51,339.01 393.47,337.98C393.3,333.73 391.59,332.88 391.59,332.88C388.79,325.53 380.72,335.39 380.72,335.39L381.15,336.19C380.562,337.439 380.278,338.81 380.32,340.19C380.321,340.915 380.391,341.638 380.53,342.35Z" style="fill:rgb(255,100,132);fill-rule:nonzero;"/>
    </g>
    <g transform="matrix(1,0,0,1,-95.23,-91.02)">
        <path d="M380.53,342.35C380.53,342.35 387.88,344.93 391.2,344.53C393.71,344.23 393.82,343.06 393.65,340.66C391.981,342.05 389.803,342.678 387.65,342.39C385.104,342.061 382.629,341.321 380.32,340.2C380.322,340.922 380.392,341.642 380.53,342.35Z" style="fill-opacity:0.1;fill-rule:nonzero;"/>
    </g>
    <g transform="matrix(1,0,0,1,-95.23,-91.02)">
        <path d="M344,163.86L346.86,176.45L347.44,179.04L352.77,179.71L358.25,180.41L364.25,178.24C364.25,178.24 365.92,172.57 364.54,168.31C364.111,166.793 363.125,165.493 361.78,164.67C361.359,164.421 360.972,164.119 360.63,163.77C360.218,163.376 359.879,162.912 359.63,162.4C359.338,161.77 359.162,161.092 359.11,160.4C358.81,157.01 360.96,153.3 360.96,153.3C360.96,153.3 348.3,148.98 349.29,151.77C349.93,153.58 348.15,156.77 346.82,158.71C346.1,159.79 345.51,160.53 345.51,160.53L344,163.86Z" style="fill:rgb(239,183,185);fill-rule:nonzero;"/>
    </g>
    <circle cx="260.22" cy="57.02" r="10.99" style="fill-opacity:0.1;"/>
    <circle cx="260.16" cy="56.61" r="10.99" style="fill:rgb(239,183,185);"/>
    <g transform="matrix(1,0,0,1,-95.23,-91.02)">
        <path d="M344.82,205.64C345.34,208.06 347.73,211.87 347.73,211.87L363.07,215.64L374.07,204.2L374.07,204.13C373.73,203.06 369.54,189.53 372.57,186.19C375.6,182.85 374.57,172.95 374.57,172.95C374.57,172.95 369.09,166.64 367.99,165.12C366.89,163.6 359.77,162.4 359.77,162.4C360.12,162.88 360.45,163.34 360.77,163.77C361.535,164.916 362.125,166.17 362.52,167.49C362.97,168.795 362.917,170.222 362.37,171.49C362.21,171.809 362.086,172.144 362,172.49C360.8,177.74 355.34,177.01 353.16,176.49C352.6,176.35 352.26,176.23 352.26,176.23L347.03,176.4L343.75,176.51C343.75,176.51 345.24,202.37 344.89,204.43C344.785,204.824 344.761,205.236 344.82,205.64Z" style="fill:rgb(255,100,132);fill-rule:nonzero;"/>
    </g>
    <g transform="matrix(1,0,0,1,-95.23,-91.02)">
        <path d="M343.68,177.85L353.2,176.6L353.02,176.6C352.716,176.532 352.416,176.448 352.12,176.35L346.89,176.52L343.61,176.63C343.61,176.63 343.64,177.05 343.68,177.85Z" style="fill:rgb(146,89,120);fill-rule:nonzero;"/>
    </g>
    <path d="M259.12,122.51L263.25,123.52L269.74,122.67L271.44,120.9L259.12,122.51Z" style="fill:rgb(146,89,120);fill-rule:nonzero;"/>
    <path d="M265.98,124.19L267.85,124.65L268.62,123.85L265.98,124.19Z" style="fill:rgb(146,89,120);fill-rule:nonzero;"/>
    <g transform="matrix(1,0,0,1,-95.23,-91.02)">
        <path d="M344.82,205.64C347.27,205.89 349.53,206.01 349.53,206.01L362.17,205.54L362.17,192.33C360.665,190.943 358.947,189.809 357.08,188.97C354.88,188.21 352.28,185.88 352.77,179.71C352.77,179.36 352.83,178.99 352.88,178.61C352.964,177.923 353.001,177.232 352.99,176.54C353.004,173.46 351.735,170.509 349.49,168.4L349.3,168.24L347.24,158.66C347.102,158.664 346.965,158.681 346.83,158.71C346.11,159.79 345.52,160.53 345.52,160.53L344,163.86L346.86,176.45L343.58,176.56C343.58,176.56 345.07,202.42 344.72,204.48C344.677,204.869 344.711,205.264 344.82,205.64Z" style="fill-opacity:0.1;fill-rule:nonzero;"/>
    </g>
    <g transform="matrix(1,0,0,1,-95.23,-91.02)">
        <path d="M349.12,206.06L361.76,205.59L361.76,192.39C360.27,190.991 358.56,189.846 356.7,189C354.37,188.19 351.6,185.63 352.5,178.63C353.135,174.878 351.862,171.047 349.11,168.42L348.92,168.26L346.86,158.68C345.553,158.795 344.36,159.48 343.6,160.55C343.372,160.921 343.118,161.275 342.84,161.61C342.31,162.465 341.213,162.793 340.3,162.37C338.97,161.78 333.24,159.37 331.95,161.73C330.66,164.09 330.42,178.25 330.42,178.25C332.318,179.809 333.63,181.968 334.14,184.37C335.02,188.37 336.49,188.51 336.49,188.51L338.07,200.11C338.07,200.11 339.51,202.63 338.44,204.02" style="fill:rgb(68,64,83);fill-rule:nonzero;"/>
    </g>
    <g transform="matrix(1,0,0,1,-95.23,-91.02)">
        <path d="M342.84,161.64L344.99,168.09L349.11,168.45L348.92,168.29L346.86,158.71C345.553,158.825 344.36,159.51 343.6,160.58C343.372,160.951 343.118,161.305 342.84,161.64Z" style="fill:rgb(68,64,83);fill-rule:nonzero;"/>
    </g>
    <g transform="matrix(1,0,0,1,-95.23,-91.02)">
        <path d="M311.82,149.79L312.09,151.89L321.22,153.18C321.22,153.18 321.97,152.62 323.14,151.86C322.14,151.64 317.64,150.65 315.26,149.86C314.39,149.59 313.8,149.36 313.78,149.2C313.76,149.04 313.84,149.02 313.98,148.9L311.82,149.79Z" style="fill-opacity:0.1;fill-rule:nonzero;"/>
    </g>
    <g transform="matrix(1,0,0,1,-95.23,-91.02)">
        <path d="M301.11,163.41C301.11,163.41 311.45,171.26 317.86,172.53C317.86,172.53 326.86,175.2 330.42,178.28L334.31,163.39L332,161.76C332,161.76 329.17,163.51 326.73,162.93C324.29,162.35 321.61,162.01 321.61,162.01C319.478,161.226 317.284,160.623 315.05,160.21C313.31,160.07 314.05,157.81 315.75,156.61C315.983,156.456 316.227,156.319 316.48,156.2C317.136,157.138 318.415,157.426 319.41,156.86C320.067,156.439 320.642,155.904 321.11,155.28C321.83,154.365 322.473,153.392 323.03,152.37C323.587,151.348 317.64,151.22 314.95,150.37C314.08,150.1 313.49,149.87 313.47,149.72C313.39,149.1 318.28,147.15 318.28,147.15C318.28,147.15 314.09,145.15 312.39,146.59C312.39,146.59 313.48,147.42 312.6,148.23C311.72,149.04 300.98,157.28 300.98,157.28C300.98,157.28 295.65,159.89 301.11,163.41Z" style="fill:rgb(68,64,83);fill-rule:nonzero;"/>
    </g>
    <g transform="matrix(1,0,0,1,-95.23,-91.02)">
        <path d="M310,155.79L315.72,156.61C315.953,156.456 316.197,156.319 316.45,156.2C317.106,157.138 318.385,157.426 319.38,156.86C320.037,156.439 320.612,155.904 321.08,155.28C321.658,154.503 322.182,153.688 322.65,152.84C323.118,151.992 317.25,151.68 314.57,150.84L310,155.79Z" style="fill-opacity:0.1;fill-rule:nonzero;"/>
    </g>
    <g transform="matrix(1,0,0,1,-95.23,-91.02)">
        <path d="M310.33,155.33L316.43,156.2C317.086,157.138 318.365,157.426 319.36,156.86C321.11,155.86 322.98,152.36 322.98,152.36C322.98,152.36 317.59,151.21 314.9,150.36L310.33,155.33Z" style="fill:rgb(68,64,83);fill-rule:nonzero;"/>
    </g>
    <g transform="matrix(1,0,0,1,-95.23,-91.02)">
        <path d="M423.8,245.65L413.65,253.33C413.65,253.33 418.24,255.7 422.52,258.45C426.26,255.92 429.79,253.59 432.46,251.45C428.9,250.24 423.8,245.65 423.8,245.65Z" style="fill-opacity:0.1;fill-rule:nonzero;"/>
    </g>
    <g transform="matrix(1,0,0,1,-95.23,-91.02)">
        <path d="M368.25,295.6C370.788,295.283 373.283,294.686 375.69,293.82C378.097,292.954 377.56,293.41 380.34,292.48C380.26,291.48 380.2,290.42 380.19,289.17C380.009,285.586 379.544,282.021 378.8,278.51L368.51,280.38L368.24,291.87C367.938,293.095 367.941,294.376 368.25,295.6Z" style="fill-opacity:0.1;fill-rule:nonzero;"/>
    </g>
    <g transform="matrix(1,0,0,1,-95.23,-91.02)">
        <path d="M349.92,248.93C352,252 357.65,265 357.65,265C358.92,267.312 360.357,269.527 361.95,271.63C364.2,274.47 365.76,280.83 367.47,285.92C369.18,291.01 366.96,290.05 367.21,292.73C367.46,295.41 377.11,291.96 377.11,291.96C377.11,291.96 396.87,287.61 402.9,275.56C408.93,263.51 433.04,252.56 437.9,245.77C442.76,238.98 436.51,241.77 436.76,238.11C437.01,234.45 434.21,231.35 434.21,231.35C434.21,231.35 425.12,228.79 423.64,227C422.16,225.21 414.9,220.74 414.9,220.74C414.9,220.74 408.06,217.74 407.19,216.74C406.32,215.74 398.19,212.5 395.72,211.88C393.25,211.26 390.8,207.73 390.8,207.73C390.8,207.73 389.26,207.93 386.99,205.73C384.72,203.53 375.21,201.64 375.21,201.64C358.94,213.56 347.71,211.86 347.71,211.86L347.45,214.12C338.82,225.37 347.86,245.87 349.92,248.93Z" style="fill:rgb(255,100,132);fill-rule:nonzero;"/>
    </g>
    <g transform="matrix(1,0,0,1,-95.23,-91.02)">
        <path d="M347.47,214.13C347.47,214.13 361.47,218.76 375.23,201.65C358.96,213.57 347.73,211.87 347.73,211.87L347.47,214.13Z" style="fill-opacity:0.1;fill-rule:nonzero;"/>
    </g>
    <g transform="matrix(1,0,0,1,-95.23,-91.02)">
        <path d="M371.65,222.13C371.65,222.13 390.52,249.36 391.65,250.36C392.78,251.36 372.64,221.79 371.65,222.13Z" style="fill-opacity:0.1;fill-rule:nonzero;"/>
    </g>
    <g transform="matrix(1,0,0,1,-95.23,-91.02)">
        <path d="M362.93,220C362.93,220 376,240.29 375.73,243C375.73,243.06 363.08,223.56 362.93,220Z" style="fill-opacity:0.1;fill-rule:nonzero;"/>
    </g>
    <g transform="matrix(1,0,0,1,-95.23,-91.02)">
        <path d="M355.32,225.61C355.32,225.61 357.73,236.96 354.1,243.38L355.32,225.61Z" style="fill-opacity:0.1;fill-rule:nonzero;"/>
    </g>
    <g transform="matrix(1,0,0,1,-95.23,-91.02)">
        <path d="M350.3,226.27C350.3,226.27 350.14,236.08 349.04,238.1L350.3,226.27Z" style="fill-opacity:0.1;fill-rule:nonzero;"/>
    </g>
    <path d="M287.07,126.49L304.42,133.29L298.07,134.12L287.07,126.49Z" style="fill-opacity:0.1;fill-rule:nonzero;"/>
    <g transform="matrix(1,0,0,1,-95.23,-91.02)">
        <path d="M348.14,141.53C349.01,142.1 349.73,143.03 350.76,143.16C351.505,143.182 352.242,142.999 352.89,142.63C354.62,141.88 356.58,141.3 358.37,141.89C360.92,142.74 362.32,145.67 364.86,146.54C366.126,146.967 367.518,146.813 368.66,146.12C369.661,145.501 370.38,144.513 370.66,143.37C370.999,141.36 370.235,139.315 368.66,138.02C367.098,136.763 365.244,135.92 363.27,135.57C358.17,134.44 352.87,134.82 347.66,135.21C347.231,135.2 346.809,135.311 346.44,135.53C345.65,136.12 344.3,139.09 344.58,140.09C345,141.43 348,140.41 348.14,141.53Z" style="fill-opacity:0.1;fill-rule:nonzero;"/>
    </g>
    <g transform="matrix(1,0,0,1,-95.23,-91.02)">
        <path d="M348.08,141.12C348.95,141.69 349.67,142.62 350.71,142.75C351.455,142.771 352.192,142.587 352.84,142.22C354.57,141.47 356.53,140.89 358.31,141.48C360.86,142.33 362.26,145.26 364.81,146.13C366.076,146.557 367.468,146.403 368.61,145.71C369.615,145.095 370.335,144.105 370.61,142.96C370.951,140.95 370.186,138.904 368.61,137.61C367.046,136.351 365.188,135.508 363.21,135.16C358.11,134.03 352.81,134.41 347.61,134.8C347.181,134.79 346.759,134.901 346.39,135.12C345.6,135.71 344.24,138.68 344.53,139.68C344.91,141 347.94,140 348.08,141.12Z" style="fill:rgb(248,109,112);fill-rule:nonzero;"/>
    </g>
    <g transform="matrix(1,0,0,1,-95.23,-91.02)">
        <path d="M415.28,149.21L416.94,155.92L419.1,154.62L430.8,147.55C430.8,147.55 439.66,147.23 440.35,140.1C441.04,132.97 430.5,140.03 429.94,140.58C429.38,141.13 428.1,142.07 428.1,142.07L417.2,148.14L415.28,149.21Z" style="fill:rgb(239,183,185);fill-rule:nonzero;"/>
    </g>
    <g transform="matrix(1,0,0,1,-95.23,-91.02)">
        <path d="M415.28,149.21L416.94,155.92L419.1,154.62C418.62,151.62 417.88,148.79 417.2,148.14L415.28,149.21Z" style="fill-opacity:0.1;fill-rule:nonzero;"/>
    </g>
    <g transform="matrix(1,0,0,1,-95.23,-91.02)">
        <path d="M357.51,193.09L359.89,207.09L374.01,204.09C373.67,203.02 369.48,189.49 372.51,186.15C375.54,182.81 374.51,172.91 374.51,172.91C374.51,172.91 369.03,166.6 367.93,165.08C366.83,163.56 359.71,162.36 359.71,162.36C359.418,161.73 359.242,161.052 359.19,160.36C358.959,160.837 358.778,161.336 358.65,161.85C358.65,164.41 359.65,166.16 362.42,167.45L363.18,167.78C363.61,167.95 364.08,168.11 364.58,168.27L364.81,168.34C369.36,169.69 370.34,172.41 370.34,172.41C371.937,174.504 372.677,177.13 372.41,179.75C371.9,184.13 357.51,193.09 357.51,193.09Z" style="fill-opacity:0.1;fill-rule:nonzero;"/>
    </g>
    <g transform="matrix(1,0,0,1,-95.23,-91.02)">
        <path d="M358.33,193L360.71,207L376.6,203.68C376.6,203.68 376.12,198.39 375.01,196.24C373.9,194.09 374.12,185.73 374.12,185.73C380.88,178.45 377.33,172.52 377.33,172.52C377.33,172.52 397.19,169.31 397.53,168.71C397.87,168.11 404.53,164.53 404.53,164.53C404.53,164.53 411.73,162.69 412.7,161.66C413.064,161.272 413.458,160.914 413.88,160.59C414.004,160.497 414.134,160.414 414.27,160.34L414.8,164.93L415,164.93C416.161,164.807 417.267,164.371 418.2,163.67C419.84,162.41 417.77,148.67 416.2,148.16C415.898,148.085 415.582,148.085 415.28,148.16C414.026,148.546 412.861,149.174 411.85,150.01L411.58,150.23L411.48,150.31C411.48,150.31 402.48,153.84 400.69,155.46C398.9,157.08 384.91,159.15 384.91,159.15C384.91,159.15 378.64,160.63 377.83,159.73C377.02,158.83 367.45,157.37 366.65,158.73C365.85,160.09 363.65,159.89 363.65,159.89C362.07,158.08 360.98,158.78 360.31,159.82C359.929,160.44 359.646,161.114 359.47,161.82C359.47,164.61 360.69,166.43 364,167.75C364.49,167.95 365,168.13 365.63,168.31C370.18,169.66 371.16,172.38 371.16,172.38C372.756,174.479 373.496,177.107 373.23,179.73C372.72,184 358.33,193 358.33,193Z" style="fill:rgb(68,64,83);fill-rule:nonzero;"/>
    </g>
    <g transform="matrix(1,0,0,1,-95.23,-91.02)">
        <path d="M415.26,148.12C415.429,148.089 415.601,148.089 415.77,148.12C417.36,148.61 419.43,162.37 417.77,163.63C416.951,164.252 415.994,164.667 414.98,164.84L414.74,164.84L414.21,160.25C414.074,160.324 413.944,160.407 413.82,160.5L413.82,160.31C414.66,156.749 413.827,152.992 411.56,150.12L415.26,148.12Z" style="fill-opacity:0.1;fill-rule:nonzero;"/>
    </g>
    <g transform="matrix(1,0,0,1,-95.23,-91.02)">
        <path d="M414.23,160.32L414.76,164.91C416.007,164.827 417.202,164.382 418.2,163.63C419.84,162.37 417.77,148.63 416.2,148.12C414.94,147.73 412.73,149.3 411.85,149.97C414.22,152.854 415.102,156.69 414.23,160.32Z" style="fill:rgb(68,64,83);fill-rule:nonzero;"/>
    </g>
    <g transform="matrix(1,0,0,1,-95.23,-91.02)">
        <path d="M364,167.71L366.28,165.56L360.28,159.77C359.899,160.39 359.616,161.064 359.44,161.77C359.44,164.57 360.65,166.39 364,167.71Z" style="fill:rgb(68,64,83);fill-rule:nonzero;"/>
    </g>
    <g transform="matrix(1,0,0,1,-95.23,-91.02)">
        <path d="M348,140.3C348.87,140.87 349.59,141.8 350.62,141.93C351.365,141.952 352.102,141.769 352.75,141.4C354.48,140.65 356.44,140.07 358.23,140.66C360.78,141.51 362.23,144.44 364.72,145.31C365.986,145.737 367.378,145.583 368.52,144.89C369.521,144.271 370.24,143.283 370.52,142.14C370.611,141.74 370.648,141.33 370.63,140.92C370.774,141.579 370.774,142.261 370.63,142.92C370.241,144.573 368.93,145.861 367.27,146.22C366.463,146.398 365.623,146.353 364.84,146.09C362.29,145.22 360.89,142.29 358.35,141.44C356.56,140.85 354.6,141.44 352.87,142.18C352.222,142.549 351.485,142.732 350.74,142.71C349.74,142.58 348.98,141.65 348.11,141.08C347.97,139.96 344.95,140.98 344.57,139.64C344.529,139.439 344.529,139.231 344.57,139.03C345.14,140.09 347.84,139.25 348,140.3Z" style="fill-opacity:0.1;fill-rule:nonzero;"/>
    </g>
    <g transform="matrix(1,0,0,1,-95.23,-91.02)">
        <path d="M357.37,171.91C357.37,171.91 356.1,175.47 357.71,176.66C357.71,176.66 355.95,171.96 354.92,172.06" style="fill-opacity:0.1;fill-rule:nonzero;"/>
    </g>
    <g transform="matrix(1,0,0,1,-95.23,-91.02)">
        <path d="M436,137.3C436,137.3 427.83,144.36 433.73,145.49C439.63,146.62 436,137.3 436,137.3Z" style="fill:rgb(239,183,185);fill-rule:nonzero;"/>
    </g>
    <path d="M308.93,52.16L310.5,93.51L355.98,52.16L308.93,52.16Z" style="fill:white;fill-rule:nonzero;"/>
    <ellipse cx="847.47" cy="692.13" rx="33.8" ry="6.5" style="fill:rgb(0,179,251);"/>
    <ellipse cx="846.9" cy="689.37" rx="3.94" ry="5.15" style="fill:rgb(63,61,86);"/>
    <ellipse cx="846.9" cy="683.07" rx="3.94" ry="5.15" style="fill:rgb(63,61,86);"/>
    <ellipse cx="846.9" cy="676.77" rx="3.94" ry="5.15" style="fill:rgb(63,61,86);"/>
    <ellipse cx="846.9" cy="670.48" rx="3.94" ry="5.15" style="fill:rgb(63,61,86);"/>
    <ellipse cx="846.9" cy="664.18" rx="3.94" ry="5.15" style="fill:rgb(63,61,86);"/>
    <ellipse cx="846.9" cy="657.88" rx="3.94" ry="5.15" style="fill:rgb(63,61,86);"/>
    <ellipse cx="846.9" cy="651.59" rx="3.94" ry="5.15" style="fill:rgb(63,61,86);"/>
    <g transform="matrix(1,0,0,1,-95.23,-91.02)">
        <path d="M956.87,699.52C957.401,698.831 957.889,698.11 958.33,697.36L948,695.66L959.18,695.74C961.353,691.028 961.483,685.621 959.54,680.81L944.54,688.59L958.38,678.42C955.005,672.64 948.795,669.074 942.102,669.074C931.761,669.074 923.252,677.584 923.252,687.924C923.252,692.125 924.656,696.208 927.24,699.52C926.407,700.586 925.686,701.735 925.09,702.95L938.52,709.95L924.2,705.14C922.156,711.166 923.285,717.834 927.2,722.85C924.59,726.171 923.17,730.275 923.17,734.499C923.17,744.839 931.679,753.349 942.02,753.349C952.361,753.349 960.87,744.839 960.87,734.499C960.87,730.275 959.45,726.171 956.84,722.85C962.195,716.032 962.195,706.358 956.84,699.54L956.87,699.52Z" style="fill:rgb(0,179,251);fill-rule:nonzero;"/>
    </g>
    <g transform="matrix(1,0,0,1,-95.23,-91.02)">
        <path d="M923.2,711.17C923.187,715.395 924.597,719.503 927.2,722.83C924.59,726.151 923.17,730.255 923.17,734.479C923.17,744.819 931.679,753.329 942.02,753.329C952.361,753.329 960.87,744.819 960.87,734.479C960.87,730.255 959.45,726.151 956.84,722.83C959.39,719.62 923.2,709.05 923.2,711.17Z" style="fill-opacity:0.1;fill-rule:nonzero;"/>
    </g>
    <defs>
        <linearGradient id="_Linear1" x1="0" y1="0" x2="1" y2="0" gradientUnits="userSpaceOnUse" gradientTransform="matrix(1.59553e-14,-260.57,260.57,1.59553e-14,554.8,808.98)"><stop offset="0" style="stop-color:rgb(128,128,128);stop-opacity:0.25"/><stop offset="0.54" style="stop-color:rgb(128,128,128);stop-opacity:0.12"/><stop offset="1" style="stop-color:rgb(128,128,128);stop-opacity:0.1"/></linearGradient>
    </defs>
</svg>
